<svg width="14" height="18" viewBox="0 0 14 18" fill="none" xmlns="http://www.w3.org/2000/svg">
<path d="M6.99238 0C3.24302 0 0.209991 3.03302 0.209991 6.78239C0.209991 8.73328 1.18544 10.5013 2.14564 12.1321C3.31922 14.1593 4.72142 16.0491 6.35225 17.7257C6.7028 18.0913 7.28212 18.0913 7.64776 17.7257C9.08044 16.3082 10.3455 14.7079 11.4124 13.0008C12.5555 11.1565 13.79 9.02271 13.79 6.78239C13.7748 3.04826 10.7417 0 6.99238 0ZM6.99238 10.7146C4.72142 10.7146 2.87722 8.87045 2.87722 6.59949C2.87722 4.32853 4.72142 2.48433 6.99238 2.48433C9.26334 2.48433 11.1075 4.31329 11.1075 6.59949C11.1075 8.88569 9.26334 10.7146 6.99238 10.7146Z" fill="url(#paint0_linear)"/>
<defs>
<linearGradient id="paint0_linear" x1="7" y1="0" x2="7" y2="17.9999" gradientUnits="userSpaceOnUse">
<stop stop-color="#F7CD47"/>
<stop offset="1" stop-color="#F37500"/>
</linearGradient>
</defs>
</svg>
