<svg width="45" height="45" viewBox="0 0 45 45" fill="none" xmlns="http://www.w3.org/2000/svg">
<path d="M8.86094 27.8483C8.50772 27.9393 8.29505 28.2994 8.38602 28.6526C8.4311 28.8278 8.454 29.0095 8.454 29.1928C8.454 30.3824 7.4861 31.3503 6.29647 31.3503C5.10683 31.3503 4.13893 30.3824 4.13893 29.1928C4.13893 28.0031 5.10683 27.0352 6.29647 27.0352C6.48061 27.0352 6.66334 27.0584 6.83946 27.104C7.19215 27.1953 7.55294 26.9833 7.64435 26.6301C7.73576 26.277 7.52362 25.9167 7.17049 25.8253C6.88631 25.7516 6.59218 25.7143 6.29647 25.7143C4.37846 25.7143 2.81799 27.2748 2.81799 29.1928C2.81799 31.1108 4.37846 32.6712 6.29647 32.6712C8.21447 32.6712 9.77494 31.1108 9.77494 29.1928C9.77494 28.8985 9.73804 28.606 9.66521 28.3232C9.57425 27.97 9.21407 27.7573 8.86094 27.8483Z" fill="url(#paint0_linear)"/>
<path d="M32.814 27.8483C32.4608 27.9393 32.2481 28.2994 32.3391 28.6526C32.3842 28.8278 32.4071 29.0095 32.4071 29.1927C32.4071 30.3823 31.4392 31.3502 30.2495 31.3502C29.0599 31.3502 28.092 30.3824 28.092 29.1928C28.092 28.0031 29.0599 27.0352 30.2495 27.0352C30.4337 27.0352 30.6164 27.0584 30.7925 27.104C31.1452 27.1953 31.506 26.9833 31.5974 26.6301C31.6888 26.277 31.4767 25.9167 31.1236 25.8253C30.8393 25.7517 30.5452 25.7144 30.2495 25.7144C28.3315 25.7144 26.7711 27.2749 26.7711 29.1929C26.7711 31.1109 28.3315 32.6713 30.2495 32.6713C32.1675 32.6713 33.728 31.1109 33.728 29.1929C33.728 28.8986 33.6911 28.6061 33.6183 28.3233C33.5273 27.97 33.167 27.7574 32.814 27.8483Z" fill="url(#paint1_linear)"/>
<path d="M44.3395 32.7593H38.6595V21.7759C38.6595 21.6602 38.6868 21.5445 38.7385 21.4411L39.2942 20.3296C39.4574 20.0033 39.3252 19.6066 38.9989 19.4434C38.6728 19.2804 38.276 19.4125 38.1128 19.7388L37.557 20.8503C37.4141 21.1362 37.3386 21.4562 37.3386 21.7759V22.8705L34.3984 18.6703C33.7587 17.7565 32.4832 17.5165 31.5551 18.1352L30.754 18.6693H22.9194C22.8959 18.6091 22.8708 18.5494 22.8439 18.4902L20.3296 12.9589C19.817 11.831 18.7401 11.0687 17.5245 10.9409V10.1712C17.5245 9.80649 17.2287 9.51077 16.864 9.51077C16.4992 9.51077 16.2035 9.80649 16.2035 10.1712V10.9198H11.9256C11.925 10.9198 11.9245 10.9198 11.9239 10.9198H11.5017C9.79424 10.9198 8.35124 12.1422 8.07059 13.8264L7.26341 18.6693H6.25245V16.3908C6.25245 15.838 6.03713 15.3183 5.64631 14.9275L4.65006 13.9312C4.39221 13.6732 3.974 13.6732 3.71607 13.9312C3.45813 14.1891 3.45813 14.6073 3.71607 14.8652L4.71241 15.8616C4.85375 16.0029 4.93159 16.1909 4.93159 16.3908V18.6693H4.66573C3.2503 18.6693 2.06507 19.7302 1.90876 21.1369L1.46113 25.1651C0.549599 26.2576 0 27.6621 0 29.1928C0 32.6646 2.82461 35.4892 6.29648 35.4892C9.76835 35.4892 12.593 32.6646 12.593 29.1928C12.593 29.0752 12.5891 28.9584 12.5827 28.8425L13.0745 29.6074C13.4537 30.1973 14.0965 30.551 14.7968 30.5572C14.7958 30.572 14.7945 30.5868 14.7945 30.6019V31.3504H14.046C13.6812 31.3504 13.3855 31.6461 13.3855 32.0109C13.3855 32.3756 13.6812 32.6713 14.046 32.6713H21.7955C22.1603 32.6713 22.456 32.3756 22.456 32.0109C22.456 31.6461 22.1603 31.3504 21.7955 31.3504H21.047V30.6019C21.047 30.587 21.0457 30.5724 21.0448 30.5578H21.0883C21.6429 30.5578 22.1637 30.342 22.5548 29.95C22.586 29.9187 22.6157 29.8863 22.6448 29.8533H23.9879C24.3191 33.0159 27.0007 35.4893 30.2496 35.4893C33.7215 35.4893 36.5461 32.6647 36.5461 29.1929C36.5461 28.8477 36.517 28.5093 36.4634 28.1791L37.3386 29.4045V33.4198C37.3386 33.7845 37.6343 34.0802 37.999 34.0802H44.3395C44.7043 34.0802 45 33.7845 45 33.4198C45 33.055 44.7043 32.7593 44.3395 32.7593ZM19.1271 13.5055L21.6414 19.0369C21.7721 19.3243 21.8372 19.6293 21.8347 19.9437C21.8321 20.2847 21.8305 20.7538 21.8295 21.2995L13.7297 19.2745C12.691 19.0148 12.0073 18.0523 12.1043 16.986L12.5356 12.2407H17.163C18.007 12.2407 18.7779 12.7371 19.1271 13.5055ZM6.29648 34.1683C3.55297 34.1683 1.32094 31.9363 1.32094 29.1928C1.32094 27.9322 1.79304 26.7803 2.56861 25.9026C2.58596 25.8847 2.60243 25.8659 2.61775 25.8462C3.52849 24.846 4.84036 24.2172 6.29648 24.2172C9.03998 24.2172 11.272 26.4493 11.272 29.1928C11.272 31.9363 9.03998 34.1683 6.29648 34.1683ZM6.29648 22.8963C5.06043 22.8963 3.90734 23.2558 2.93363 23.8735L3.22151 21.2828C3.30341 20.5459 3.92425 19.9902 4.66565 19.9902H7.23161C7.30796 20.4546 7.47837 20.9023 7.73789 21.3061L9.22694 23.6223C8.35098 23.1596 7.35411 22.8963 6.29648 22.8963ZM19.726 30.6018V31.3503H16.1155V30.6018C16.1155 30.5869 16.1142 30.5724 16.1133 30.5577H19.7282C19.7273 30.5724 19.726 30.5869 19.726 30.6018ZM21.6197 29.017C21.4783 29.1588 21.2895 29.2368 21.0883 29.2368H14.8152C14.5593 29.2368 14.3239 29.1083 14.1856 28.893L8.84897 20.5917C8.55872 20.1401 8.44741 19.5998 8.53565 19.0703L9.37347 14.0435C9.53111 13.0975 10.2807 12.3885 11.2072 12.2626L10.7887 16.8663C10.6324 18.5855 11.7345 20.1371 13.4093 20.5559L21.8284 22.6606C21.8284 24.7502 21.8341 27.2747 21.8368 28.4897C21.8372 28.689 21.7602 28.8762 21.6197 29.017ZM30.2495 34.1683C27.506 34.1683 25.274 31.9363 25.274 29.1928C25.274 26.4493 27.506 24.2172 30.2495 24.2172C32.993 24.2172 35.225 26.4493 35.225 29.1928C35.225 31.9363 32.993 34.1683 30.2495 34.1683ZM30.2495 22.8963C27.0007 22.8963 24.319 25.3697 23.9878 28.5323H23.1567C23.1569 28.5171 23.1577 28.502 23.1576 28.4867C23.1547 27.1939 23.1486 24.417 23.1494 22.2634C23.1635 22.1845 23.1631 22.106 23.1495 22.0308C23.15 21.1963 23.1517 20.4734 23.1552 19.9902H30.6139L31.1801 20.7828H24.6135C24.2487 20.7828 23.953 21.0785 23.953 21.4433C23.953 21.808 24.2487 22.1037 24.6135 22.1037H32.1237L33.2249 23.6454C32.3383 23.1679 31.3251 22.8963 30.2495 22.8963ZM31.8879 19.5009L32.2879 19.2343C32.6236 19.0104 33.0849 19.0974 33.3164 19.4279L37.3386 25.1739V27.1318L31.8879 19.5009Z" fill="url(#paint2_linear)"/>
<defs>
<linearGradient id="paint0_linear" x1="6.29647" y1="25.7143" x2="6.29647" y2="32.6712" gradientUnits="userSpaceOnUse">
<stop stop-color="#F7CD47"/>
<stop offset="1" stop-color="#F37500"/>
</linearGradient>
<linearGradient id="paint1_linear" x1="30.2495" y1="25.7144" x2="30.2495" y2="32.6713" gradientUnits="userSpaceOnUse">
<stop stop-color="#F7CD47"/>
<stop offset="1" stop-color="#F37500"/>
</linearGradient>
<linearGradient id="paint2_linear" x1="22.5" y1="9.51077" x2="22.5" y2="35.4893" gradientUnits="userSpaceOnUse">
<stop stop-color="#F7CD47"/>
<stop offset="1" stop-color="#F37500"/>
</linearGradient>
</defs>
</svg>
