<svg width="45" height="45" viewBox="0 0 45 45" fill="none" xmlns="http://www.w3.org/2000/svg">
<g clip-path="url(#clip0)">
<path d="M34.401 19.2904C34.4 19.2821 34.3994 19.2736 34.3982 19.2654C34.3923 19.2243 34.3844 19.1832 34.3733 19.1427C34.3732 19.1423 34.373 19.1419 34.3729 19.1414C34.3626 19.1035 34.3493 19.0661 34.3344 19.0292C34.3301 19.0186 34.3254 19.0084 34.3208 18.998C34.309 18.9714 34.2959 18.9451 34.2816 18.9192C34.2754 18.9079 34.2694 18.8966 34.2627 18.8855C34.2591 18.8795 34.2563 18.8733 34.2525 18.8673C34.2374 18.8434 34.2209 18.8209 34.2042 18.7986C34.2011 18.7944 34.1985 18.79 34.1954 18.786C34.1699 18.753 34.1424 18.7223 34.1136 18.6933C34.1082 18.6878 34.1023 18.6827 34.0967 18.6774C34.0717 18.6533 34.0457 18.6307 34.0186 18.6094C34.0117 18.604 34.005 18.5986 33.9979 18.5934C33.9616 18.5666 33.9243 18.5415 33.8853 18.5198L18.8862 9.99402L27.5222 4.55598L42.0002 12.7854L35.9027 16.625C35.4269 16.9245 35.284 17.5532 35.5837 18.0289C35.8832 18.5048 36.5118 18.6476 36.9876 18.348L44.5241 13.6023C44.8271 13.4117 45.0076 13.0758 44.9995 12.7178C44.9914 12.3599 44.7961 12.0326 44.4847 11.8557L27.9985 2.48457C27.6724 2.29907 27.2705 2.30824 26.9529 2.50809L16.3692 9.17262C16.3671 9.17395 16.3648 9.17537 16.3627 9.1767L11.074 12.507C11.0716 12.5085 11.0691 12.51 11.0668 12.5116L0.475867 19.1807C0.172883 19.3714 -0.00762476 19.7072 0.00051998 20.0652C0.00856291 20.4232 0.203935 20.7504 0.515267 20.9273L17.0016 30.2985C17.1578 30.3873 17.3313 30.4315 17.5047 30.4315C17.6933 30.4315 17.8817 30.3791 18.0471 30.2749L25.5837 25.5292C26.0595 25.2297 26.2023 24.601 25.9027 24.1252C25.6033 23.6494 24.9745 23.5064 24.4988 23.8062L17.4779 28.2271L2.99992 19.9975L11.636 14.5594L27.0774 23.3365V34.9613C27.0774 35.3321 27.2789 35.6735 27.6034 35.8527C27.7569 35.9374 27.9263 35.9794 28.0955 35.9794C28.2842 35.9794 28.4726 35.927 28.6379 35.8228L33.9334 32.4883C34.2295 32.3019 34.4091 31.9766 34.4091 31.6268V19.4096C34.4091 19.4036 34.4081 19.3979 34.4079 19.3919C34.4073 19.3581 34.405 19.3243 34.401 19.2904ZM29.1136 33.1172V22.7443C29.1136 22.3781 28.9169 22.0402 28.5985 21.8593L13.5907 13.3286L16.9314 11.2249L31.4093 19.4544L30.1416 20.2526C29.6658 20.5521 29.523 21.1808 29.8226 21.6566C30.016 21.964 30.3468 22.1323 30.6851 22.1323C30.8704 22.1323 31.0581 22.0817 31.2265 21.9756L32.3728 21.2539V31.0649L29.1136 33.1172Z" fill="url(#paint0_linear)"/>
<path d="M43.4394 15.9516L35.9028 20.6973C35.427 20.9968 35.2841 21.6255 35.5838 22.1012C35.7772 22.4087 36.108 22.577 36.4463 22.577C36.6316 22.577 36.8193 22.5264 36.9877 22.4203L44.5243 17.6746C45.0001 17.3751 45.1429 16.7464 44.8433 16.2707C44.5438 15.7948 43.9151 15.6519 43.4394 15.9516Z" fill="url(#paint1_linear)"/>
<path d="M24.4986 27.8784L17.4777 32.2994L1.52125 23.2295C1.03277 22.9518 0.410915 23.1224 0.133078 23.6115C-0.14476 24.1003 0.0261779 24.7218 0.515066 24.9997L17.0014 34.3708C17.1576 34.4597 17.3311 34.5039 17.5045 34.5039C17.6931 34.5039 17.8815 34.4515 18.0469 34.3473L25.5835 29.6016C26.0593 29.302 26.2022 28.6734 25.9025 28.1976C25.6031 27.7217 24.9743 27.5787 24.4986 27.8784Z" fill="url(#paint2_linear)"/>
<path d="M43.4394 20.024L35.9028 24.7696C35.427 25.0691 35.2841 25.6978 35.5838 26.1736C35.7772 26.481 36.108 26.6493 36.4463 26.6493C36.6316 26.6493 36.8193 26.5987 36.9877 26.4926L44.5243 21.747C45.0001 21.4475 45.1429 20.8188 44.8433 20.343C44.5438 19.8671 43.9151 19.7242 43.4394 20.024Z" fill="url(#paint3_linear)"/>
<path d="M24.4986 31.9508L17.4777 36.3718L1.52125 27.3019C1.03277 27.0242 0.410915 27.1948 0.133078 27.6839C-0.14476 28.1727 0.0261779 28.7942 0.515066 29.0721L17.0014 38.4432C17.1576 38.5321 17.3311 38.5763 17.5045 38.5763C17.6931 38.5763 17.8815 38.5238 18.0469 38.4197L25.5835 33.6739C26.0593 33.3744 26.2022 32.7458 25.9025 32.27C25.6031 31.7939 24.9743 31.6511 24.4986 31.9508Z" fill="url(#paint4_linear)"/>
<path d="M43.4394 24.0963L35.9028 28.842C35.427 29.1415 35.2841 29.7702 35.5838 30.2459C35.7772 30.5534 36.108 30.7217 36.4463 30.7217C36.6316 30.7217 36.8193 30.6711 36.9877 30.565L44.5243 25.8194C45.0001 25.5198 45.1429 24.8912 44.8433 24.4154C44.5438 23.9396 43.9151 23.7967 43.4394 24.0963Z" fill="url(#paint5_linear)"/>
<path d="M24.4986 36.0232L17.4777 40.4441L1.52125 31.3743C1.03277 31.0965 0.410915 31.2672 0.133078 31.7563C-0.14476 32.245 0.0261779 32.8666 0.515066 33.1444L17.0014 42.5156C17.1576 42.6044 17.3311 42.6486 17.5045 42.6486C17.6931 42.6486 17.8815 42.5962 18.0469 42.492L25.5835 37.7463C26.0593 37.4468 26.2022 36.8181 25.9025 36.3424C25.6031 35.8664 24.9743 35.7235 24.4986 36.0232Z" fill="url(#paint6_linear)"/>
</g>
<defs>
<linearGradient id="paint0_linear" x1="22.5" y1="2.35156" x2="22.5" y2="35.9794" gradientUnits="userSpaceOnUse">
<stop stop-color="#F37500"/>
<stop offset="1" stop-color="#F37500"/>
</linearGradient>
<linearGradient id="paint1_linear" x1="40.2135" y1="15.7949" x2="40.2135" y2="22.577" gradientUnits="userSpaceOnUse">
<stop stop-color="#F37500"/>
<stop offset="1" stop-color="#F37500"/>
</linearGradient>
<linearGradient id="paint2_linear" x1="13.0296" y1="23.0963" x2="13.0296" y2="34.5039" gradientUnits="userSpaceOnUse">
<stop stop-color="#F37500"/>
<stop offset="1" stop-color="#F37500"/>
</linearGradient>
<linearGradient id="paint3_linear" x1="40.2135" y1="19.8672" x2="40.2135" y2="26.6493" gradientUnits="userSpaceOnUse">
<stop stop-color="#F37500"/>
<stop offset="1" stop-color="#F37500"/>
</linearGradient>
<linearGradient id="paint4_linear" x1="13.0296" y1="27.1687" x2="13.0296" y2="38.5763" gradientUnits="userSpaceOnUse">
<stop stop-color="#F37500"/>
<stop offset="1" stop-color="#F37500"/>
</linearGradient>
<linearGradient id="paint5_linear" x1="40.2135" y1="23.9396" x2="40.2135" y2="30.7217" gradientUnits="userSpaceOnUse">
<stop stop-color="#F37500"/>
<stop offset="1" stop-color="#F37500"/>
</linearGradient>
<linearGradient id="paint6_linear" x1="13.0296" y1="31.2411" x2="13.0296" y2="42.6486" gradientUnits="userSpaceOnUse">
<stop stop-color="#F37500"/>
<stop offset="1" stop-color="#F37500"/>
</linearGradient>
<clipPath id="clip0">
<rect width="45" height="45" fill="white"/>
</clipPath>
</defs>
</svg>
