<svg width="45" height="45" viewBox="0 0 45 45" fill="none" xmlns="http://www.w3.org/2000/svg">
<path d="M22.1594 23.8071C24.8126 23.8071 26.9633 21.6559 26.9633 19.003C26.9633 16.3497 24.8126 14.1988 22.1594 14.1988C19.5058 14.1988 17.3552 16.3497 17.3552 19.003C17.3584 21.6548 19.5073 23.8036 22.1594 23.8071ZM22.1594 16.0666C23.7861 16.0666 25.1048 17.3852 25.1048 19.0123C25.1048 20.639 23.7861 21.9579 22.1594 21.9579C20.5323 21.9579 19.2137 20.639 19.2137 19.0123C19.214 17.3855 20.5326 16.0671 22.1594 16.0666Z" fill="url(#paint0_linear)"/>
<path d="M22.1594 25.582C20.1937 25.5675 18.3074 26.3564 16.9371 27.7657C15.5432 29.1874 14.7812 31.1203 14.7812 33.2203C14.7827 33.7329 15.1976 34.1481 15.7105 34.1496H28.608C29.1208 34.1481 29.5358 33.7329 29.5372 33.2203C29.5372 31.1203 28.7753 29.1874 27.3814 27.7657C26.0114 26.3564 24.1247 25.5675 22.1594 25.582ZM16.7047 32.2911C16.8636 31.0761 17.4115 29.9453 18.2659 29.0666C19.2941 28.0262 20.6964 27.4405 22.1594 27.4405C23.6221 27.4405 25.0243 28.0262 26.0526 29.0666C26.9052 29.9462 27.4525 31.0767 27.6137 32.2911H16.7047Z" fill="url(#paint1_linear)"/>
<path d="M33.3102 1.41245H11.0085C8.4429 1.41361 6.36315 3.49307 6.36227 6.05864V38.9537C6.36315 41.5193 8.4429 43.5988 11.0085 43.5999H33.3102C35.8758 43.5988 37.9553 41.5193 37.9564 38.9537V6.05864C37.9553 3.49307 35.8758 1.41361 33.3102 1.41245ZM36.098 38.9537C36.0936 40.4913 34.8478 41.7371 33.3102 41.7414H11.0085C9.47087 41.7371 8.22511 40.4913 8.22075 38.9537V6.05864C8.22511 4.52104 9.47087 3.27528 11.0085 3.27092H33.3102C34.8478 3.27528 36.0936 4.52104 36.098 6.05864V38.9537Z" fill="url(#paint2_linear)"/>
<path d="M18.2844 7.64763H25.7184C26.2315 7.64763 26.6476 7.23151 26.6476 6.71839C26.6476 6.20528 26.2315 5.78915 25.7184 5.78915H18.2844C17.771 5.78915 17.3552 6.20528 17.3552 6.71839C17.3552 7.23151 17.771 7.64763 18.2844 7.64763Z" fill="url(#paint3_linear)"/>
<defs>
<linearGradient id="paint0_linear" x1="22.1592" y1="14.1988" x2="22.1592" y2="23.8071" gradientUnits="userSpaceOnUse">
<stop stop-color="#F7CD47"/>
<stop offset="1" stop-color="#F37500"/>
</linearGradient>
<linearGradient id="paint1_linear" x1="22.1592" y1="25.5818" x2="22.1592" y2="34.1496" gradientUnits="userSpaceOnUse">
<stop stop-color="#F7CD47"/>
<stop offset="1" stop-color="#F37500"/>
</linearGradient>
<linearGradient id="paint2_linear" x1="22.1594" y1="1.41245" x2="22.1594" y2="43.5999" gradientUnits="userSpaceOnUse">
<stop stop-color="#F7CD47"/>
<stop offset="1" stop-color="#F37500"/>
</linearGradient>
<linearGradient id="paint3_linear" x1="22.0014" y1="5.78915" x2="22.0014" y2="7.64763" gradientUnits="userSpaceOnUse">
<stop stop-color="#F7CD47"/>
<stop offset="1" stop-color="#F37500"/>
</linearGradient>
</defs>
</svg>
