<svg width="45" height="45" viewBox="0 0 45 45" fill="none" xmlns="http://www.w3.org/2000/svg">
<path d="M30.5603 45C30.5581 45 30.5559 45 30.5539 45H5.63778C5.23397 45 4.90668 44.6727 4.90668 44.2689V0.731101C4.90668 0.32729 5.23397 0 5.63778 0H39.3623C39.7661 0 40.0934 0.32729 40.0934 0.731101V35.2269C40.0936 35.2569 40.0919 35.2866 40.0885 35.3161C40.0885 35.3161 40.0885 35.3163 40.0885 35.3166C40.0885 35.3171 40.0885 35.3175 40.0882 35.318C40.0882 35.3183 40.0882 35.3185 40.0882 35.3188C40.0882 35.3192 40.0882 35.3197 40.088 35.3205C40.088 35.321 40.088 35.3214 40.088 35.3219C40.0843 35.3519 40.0787 35.3814 40.0717 35.4104C40.0717 35.4106 40.0714 35.4109 40.0714 35.4114C40.0714 35.4116 40.0712 35.4119 40.0712 35.4121C40.0712 35.4126 40.0709 35.4131 40.0709 35.4136V35.4138C40.0407 35.5315 39.981 35.6421 39.8942 35.734C39.8938 35.7345 39.8933 35.735 39.8928 35.7355C39.8923 35.736 39.8918 35.7365 39.8913 35.7369C39.8908 35.7374 39.8906 35.7377 39.8901 35.7382C39.8901 35.7384 39.8899 35.7384 39.8896 35.7387C39.8894 35.7389 39.8891 35.7394 39.8886 35.7396C39.8886 35.7396 39.8884 35.7399 39.8882 35.7401C39.8877 35.7406 39.8872 35.7411 39.8867 35.7416L31.085 44.7785C31.084 44.7794 31.0828 44.7807 31.0818 44.7819C31.0813 44.7824 31.0808 44.7829 31.0801 44.7836C31.0796 44.7841 31.0791 44.7846 31.0786 44.7851C31.0786 44.7851 31.0786 44.7851 31.0784 44.7853C31.0781 44.7855 31.0777 44.786 31.0772 44.7865C31.0772 44.7865 31.0769 44.7868 31.0767 44.7868C31.0764 44.7872 31.076 44.7875 31.0757 44.788C31.0755 44.7882 31.0752 44.7885 31.075 44.7885C31.0747 44.7887 31.0745 44.789 31.0742 44.7892C31.074 44.7894 31.0738 44.7897 31.0733 44.7902C31.0733 44.7902 31.0733 44.7904 31.073 44.7904C30.9775 44.884 30.8603 44.9476 30.7355 44.9781C30.7345 44.9786 30.734 44.9783 30.7333 44.9786C30.7331 44.9788 30.7323 44.9788 30.7314 44.979C30.7306 44.979 30.7301 44.9793 30.7294 44.9795C30.7289 44.9798 30.7279 44.9795 30.7275 44.98C30.7267 44.98 30.7255 44.9805 30.7255 44.9805C30.7248 44.9805 30.7233 44.9807 30.7233 44.9807C30.7167 44.9822 30.7102 44.9837 30.7033 44.9849C30.7026 44.9849 30.7019 44.9851 30.7011 44.9854C30.7014 44.9861 30.6999 44.9856 30.6989 44.9856C30.6985 44.9854 30.6977 44.9856 30.697 44.9859C30.6955 44.9861 30.6955 44.9861 30.6948 44.9864C30.6943 44.9864 30.6936 44.9866 30.6929 44.9866C30.6924 44.9866 30.6916 44.9868 30.6907 44.9868C30.6899 44.9871 30.6894 44.9873 30.6887 44.9871C30.6453 44.9963 30.6029 45 30.5603 45ZM6.36888 43.5378H29.8294V35.232C29.8294 34.8282 30.1567 34.5009 30.5605 34.5009H38.6312V1.4622H6.36888V43.5378ZM31.2916 35.9631V42.4704L37.6295 35.9631H31.2916ZM32.4297 31.971H9.91813C9.51432 31.971 9.18703 31.6438 9.18703 31.2399C9.18703 30.8361 9.51432 30.5088 9.91813 30.5088H32.43C32.8338 30.5088 33.1611 30.8361 33.1611 31.2399C33.1611 31.6438 32.8335 31.971 32.4297 31.971ZM34.9613 28.6709H9.91813C9.51432 28.6709 9.18703 28.3436 9.18703 27.9398C9.18703 27.5359 9.51432 27.2087 9.91813 27.2087H34.9613C35.3651 27.2087 35.6924 27.5359 35.6924 27.9398C35.6924 28.3436 35.3651 28.6709 34.9613 28.6709ZM14.8577 24.0756C14.8246 24.0756 14.7914 24.0735 14.758 24.0688L9.17679 23.3009C8.97574 23.2731 8.79516 23.1632 8.67843 22.997C8.5617 22.8308 8.51929 22.6239 8.56121 22.4253L10.2998 14.2043C9.06518 12.9768 8.35772 11.2348 8.50881 9.36784C8.78127 6.00356 11.7383 3.48735 15.1041 3.76054C18.4684 4.033 20.9838 6.99152 20.7114 10.3558C20.5871 11.8906 19.9035 13.249 18.8775 14.2465L20.5527 20.7891C20.6039 20.9887 20.5683 21.2007 20.455 21.3728C20.3417 21.5448 20.1609 21.6611 19.9574 21.6927L15.6115 22.3707L15.5888 23.3611C15.5839 23.5695 15.4906 23.7659 15.3319 23.9009C15.1989 24.0145 15.0305 24.0756 14.8577 24.0756ZM10.1543 21.9591L14.1456 22.5084L14.295 15.9748C14.2355 15.9716 14.1761 15.9677 14.1164 15.9629C13.1966 15.8883 12.3403 15.6131 11.5872 15.1838L10.1543 21.9591ZM15.6517 20.6058L15.7141 20.8749L18.9365 20.3721L17.611 15.1947C17.0417 15.5162 16.4179 15.7486 15.7599 15.8749L15.6517 20.6058ZM14.6023 5.20227C13.4988 5.20227 12.4421 5.58951 11.5921 6.31208C10.6439 7.11824 10.0665 8.24536 9.96614 9.48579C9.75875 12.0464 11.6735 14.2984 14.2343 14.5058C16.7944 14.7141 19.0467 12.7984 19.254 10.2379C19.4614 7.67729 17.5469 5.42526 14.9861 5.21787C14.8577 5.20739 14.7298 5.20227 14.6023 5.20227ZM34.9613 15.4036H24.6308C24.227 15.4036 23.8997 15.0763 23.8997 14.6725C23.8997 14.2687 24.227 13.9414 24.6308 13.9414H34.9613C35.3651 13.9414 35.6924 14.2687 35.6924 14.6725C35.6924 15.0763 35.3651 15.4036 34.9613 15.4036ZM33.4859 11.5122H24.6308C24.227 11.5122 23.8997 11.1849 23.8997 10.7811C23.8997 10.3772 24.227 10.05 24.6308 10.05H33.4857C33.8895 10.05 34.2168 10.3772 34.2168 10.7811C34.2168 11.1849 33.8895 11.5122 33.4859 11.5122ZM34.9613 7.38436H24.6308C24.227 7.38436 23.8997 7.05707 23.8997 6.65326C23.8997 6.24945 24.227 5.92216 24.6308 5.92216H34.9613C35.3651 5.92216 35.6924 6.24945 35.6924 6.65326C35.6924 7.05707 35.3651 7.38436 34.9613 7.38436Z" fill="url(#paint0_linear)"/>
<defs>
<linearGradient id="paint0_linear" x1="22.5" y1="0" x2="22.5" y2="45" gradientUnits="userSpaceOnUse">
<stop stop-color="#F7CD47"/>
<stop offset="1" stop-color="#F37500"/>
</linearGradient>
</defs>
</svg>
