<svg width="46" height="46" viewBox="0 0 46 46" fill="none" xmlns="http://www.w3.org/2000/svg">
<g clip-path="url(#clip0)">
<path d="M40.0975 11.1473C40.1288 11.1509 40.1601 11.1525 40.1913 11.1525C40.4146 11.1525 40.6306 11.064 40.7905 10.9043L45.3605 6.3344C45.5929 6.10187 45.67 5.75585 45.558 5.44657C45.446 5.13729 45.1653 4.92074 44.8378 4.89098L41.4208 4.58038L41.11 1.16337C41.0803 0.835899 40.8637 0.555145 40.5545 0.443249C40.2452 0.331266 39.8992 0.408277 39.6666 0.640811L35.0966 5.21077C34.9146 5.39279 34.8251 5.64784 34.8536 5.90378L35.2581 9.5444L34.4023 10.4002C31.2417 7.509 27.0962 5.67849 22.5343 5.47572V3.86635C22.5343 3.39828 22.1548 3.01879 21.6868 3.01879C21.2187 3.01879 20.8392 3.39828 20.8392 3.86635V5.47545C11.1135 5.90784 3.28046 13.7409 2.84798 23.4667H1.23888C0.77081 23.4667 0.391319 23.8462 0.391319 24.3142C0.391319 24.7823 0.77081 25.1618 1.23888 25.1618H2.84798C3.28046 34.8876 11.1135 42.7205 20.8392 43.153V44.7621C20.8392 45.2302 21.2187 45.6097 21.6868 45.6097C22.1548 45.6097 22.5343 45.2302 22.5343 44.7621V43.153C32.26 42.7206 40.0931 34.8876 40.5256 25.1618H42.1347C42.6027 25.1618 42.9822 24.7823 42.9822 24.3142C42.9822 23.8462 42.6027 23.4667 42.1347 23.4667H40.5256C40.3228 18.9048 38.4923 14.7593 35.6012 11.5985L36.457 10.7427L40.0975 11.1473ZM39.5858 3.11902L39.7966 5.4373C39.8337 5.84478 40.1564 6.16758 40.5639 6.20467L42.8822 6.41539L39.8798 9.41767L36.9131 9.08807L36.5835 6.12139L39.5858 3.11902ZM38.8293 23.4667H37.6352C37.1671 23.4667 36.7876 23.8462 36.7876 24.3142C36.7876 24.7823 37.1671 25.1618 37.6352 25.1618H38.8293C38.3996 33.9529 31.3254 41.0271 22.5344 41.4567V40.2626C22.5344 39.7946 22.1549 39.4151 21.6869 39.4151C21.2188 39.4151 20.8393 39.7946 20.8393 40.2626V41.4567C12.0482 41.0272 4.974 33.9528 4.54434 25.1619H5.73845C6.20652 25.1619 6.58601 24.7824 6.58601 24.3143C6.58601 23.8463 6.20652 23.4668 5.73845 23.4668H4.54434C4.974 14.6759 12.0482 7.60146 20.8392 7.1719V8.36592C20.8392 8.83399 21.2187 9.21348 21.6868 9.21348C22.1548 9.21348 22.5343 8.83399 22.5343 8.36592V7.1719C26.6292 7.37202 30.3514 9.01371 33.2033 11.5991L30.6529 14.1495C28.261 12.0371 25.1213 10.753 21.6867 10.753C14.2089 10.753 8.12535 16.8365 8.12535 24.3143C8.12535 31.7921 14.2089 37.8757 21.6867 37.8757C29.1644 37.8757 35.248 31.7921 35.248 24.3143C35.248 20.8798 33.9639 17.74 31.8517 15.348L34.402 12.7977C36.9876 15.6496 38.6292 19.3719 38.8293 23.4667ZM21.0875 24.9136C21.2531 25.0791 21.4699 25.1619 21.6868 25.1619C21.9037 25.1619 22.1207 25.0791 22.2861 24.9136L26.8891 20.3106C27.7447 21.4199 28.2555 22.8083 28.2555 24.3143C28.2555 27.9364 25.3088 30.8831 21.6867 30.8831C18.0646 30.8831 15.1179 27.9364 15.1179 24.3143C15.1179 20.6922 18.0646 17.7455 21.6867 17.7455C23.1927 17.7455 24.581 18.2563 25.6904 19.1119L21.0874 23.7149C20.7565 24.046 20.7565 24.5826 21.0875 24.9136ZM21.6869 16.0505C17.1301 16.0505 13.4229 19.7577 13.4229 24.3144C13.4229 28.8711 17.1301 32.5783 21.6869 32.5783C26.2437 32.5783 29.9508 28.8711 29.9508 24.3144C29.9508 22.3407 29.2544 20.5271 28.0956 19.1043L30.6516 16.5483C32.4583 18.6311 33.5531 21.3472 33.5531 24.3143C33.5531 30.8573 28.23 36.1804 21.6869 36.1804C15.1439 36.1804 9.82082 30.8573 9.82082 24.3143C9.82082 17.7713 15.1439 12.4481 21.6869 12.4481C24.654 12.4481 27.3703 13.5429 29.453 15.3495L26.897 17.9056C25.4742 16.7469 23.6606 16.0505 21.6869 16.0505Z" fill="url(#paint0_linear)"/>
</g>
<defs>
<linearGradient id="paint0_linear" x1="23" y1="0.392578" x2="23" y2="45.6097" gradientUnits="userSpaceOnUse">
<stop stop-color="#F7CD47"/>
<stop offset="1" stop-color="#F37500"/>
</linearGradient>
<clipPath id="clip0">
<rect width="45.2174" height="45.2174" fill="white" transform="translate(0.391319 0.391327)"/>
</clipPath>
</defs>
</svg>
