<svg width="45" height="45" viewBox="0 0 45 45" fill="none" xmlns="http://www.w3.org/2000/svg">
<path d="M41.2655 27.8613C41.8931 27.1608 42.2754 26.2362 42.2754 25.2246C42.2754 23.044 40.5009 21.2695 38.3203 21.2695H30.6439C31.4042 18.9624 31.7285 15.9012 31.7285 14.589V13.2715C31.7285 10.3641 29.3625 7.99805 26.4551 7.99805H25.1367C24.532 7.99805 24.0047 8.40938 23.8579 8.99648L23.1398 11.8696C22.1335 15.8933 18.9387 20.3326 15.6322 21.1395C15.053 19.6734 13.623 18.6328 11.9531 18.6328H4.04297C3.31523 18.6328 2.72461 19.2234 2.72461 19.9512V43.6816C2.72461 44.4094 3.31523 45 4.04297 45H11.9531C13.5255 45 14.886 44.078 15.5232 42.7456L20.0531 44.2556C21.5341 44.7495 23.0774 45 24.6393 45H35.6836C37.8642 45 39.6387 43.2255 39.6387 41.0449C39.6387 40.5308 39.5402 40.0386 39.3609 39.5877C41.0379 39.1298 42.2754 37.5926 42.2754 35.7715C42.2754 34.7599 41.8931 33.8353 41.2655 33.1348C41.8931 32.4343 42.2754 31.5097 42.2754 30.498C42.2754 29.4864 41.8931 28.5618 41.2655 27.8613ZM13.2715 41.0449C13.2715 41.7718 12.68 42.3633 11.9531 42.3633H5.36133V21.2695H11.9531C12.68 21.2695 13.2715 21.861 13.2715 22.5879V41.0449ZM35.6836 29.1797H38.3203C39.0472 29.1797 39.6387 29.7712 39.6387 30.498C39.6387 31.2249 39.0472 31.8164 38.3203 31.8164H35.6836C34.9559 31.8164 34.3652 32.407 34.3652 33.1348C34.3652 33.8625 34.9559 34.4531 35.6836 34.4531H38.3203C39.0472 34.4531 39.6387 35.0446 39.6387 35.7715C39.6387 36.4983 39.0472 37.0898 38.3203 37.0898H35.6836C34.9559 37.0898 34.3652 37.6805 34.3652 38.4082C34.3652 39.1359 34.9559 39.7266 35.6836 39.7266C36.4104 39.7266 37.002 40.3181 37.002 41.0449C37.002 41.7718 36.4104 42.3633 35.6836 42.3633H24.6393C23.3613 42.3633 22.0983 42.1585 20.8863 41.7542L15.9082 40.0948V23.7814C17.9763 23.3886 20.0004 22.079 21.8276 19.9354C23.6118 17.8418 25.0585 15.0662 25.6975 12.5095L26.1659 10.6348H26.4551C27.9088 10.6348 29.0918 11.8178 29.0918 13.2715V14.589C29.0918 16.3591 28.5381 19.7543 27.8297 21.2695H25.1367C24.409 21.2695 23.8184 21.8602 23.8184 22.5879C23.8184 23.3156 24.409 23.9062 25.1367 23.9062H38.3203C39.0472 23.9062 39.6387 24.4978 39.6387 25.2246C39.6387 25.9515 39.0472 26.543 38.3203 26.543H35.6836C34.9559 26.543 34.3652 27.1336 34.3652 27.8613C34.3652 28.5891 34.9559 29.1797 35.6836 29.1797Z" fill="url(#paint0_linear)"/>
<path d="M9.31641 39.7266C10.0445 39.7266 10.6348 39.1363 10.6348 38.4082C10.6348 37.6801 10.0445 37.0898 9.31641 37.0898C8.5883 37.0898 7.99805 37.6801 7.99805 38.4082C7.99805 39.1363 8.5883 39.7266 9.31641 39.7266Z" fill="url(#paint1_linear)"/>
<path d="M27.7734 0C27.0454 0 26.4551 0.590273 26.4551 1.31836V4.04297C26.4551 4.77105 27.0454 5.36133 27.7734 5.36133C28.5015 5.36133 29.0918 4.77105 29.0918 4.04297V1.31836C29.0918 0.590273 28.5015 0 27.7734 0Z" fill="url(#paint2_linear)"/>
<path d="M22.1801 5.81378L20.3156 3.94935C19.8009 3.43449 18.9661 3.43449 18.4512 3.94935C17.9363 4.46421 17.9363 5.29891 18.4512 5.81378L20.3156 7.6782C20.8304 8.19298 21.6653 8.19306 22.1801 7.6782C22.6949 7.16334 22.6949 6.32864 22.1801 5.81378Z" fill="url(#paint3_linear)"/>
<path d="M37.0957 3.94935C36.5809 3.43449 35.7461 3.43449 35.2312 3.94935L33.3668 5.81369C32.8519 6.32855 32.8519 7.16325 33.3668 7.67811C33.8816 8.19298 34.7164 8.19306 35.2312 7.6782L37.0957 5.81377C37.6105 5.29891 37.6105 4.46421 37.0957 3.94935Z" fill="url(#paint4_linear)"/>
<defs>
<linearGradient id="paint0_linear" x1="22.5" y1="7.99805" x2="22.5" y2="45" gradientUnits="userSpaceOnUse">
<stop stop-color="#F7CD47"/>
<stop offset="1" stop-color="#F37500"/>
</linearGradient>
<linearGradient id="paint1_linear" x1="9.31641" y1="37.0898" x2="9.31641" y2="39.7266" gradientUnits="userSpaceOnUse">
<stop stop-color="#F7CD47"/>
<stop offset="1" stop-color="#F37500"/>
</linearGradient>
<linearGradient id="paint2_linear" x1="27.7734" y1="0" x2="27.7734" y2="5.36133" gradientUnits="userSpaceOnUse">
<stop stop-color="#F7CD47"/>
<stop offset="1" stop-color="#F37500"/>
</linearGradient>
<linearGradient id="paint3_linear" x1="20.3156" y1="3.5632" x2="20.3156" y2="8.06431" gradientUnits="userSpaceOnUse">
<stop stop-color="#F7CD47"/>
<stop offset="1" stop-color="#F37500"/>
</linearGradient>
<linearGradient id="paint4_linear" x1="35.2312" y1="3.5632" x2="35.2312" y2="8.0643" gradientUnits="userSpaceOnUse">
<stop stop-color="#F7CD47"/>
<stop offset="1" stop-color="#F37500"/>
</linearGradient>
</defs>
</svg>
