<svg width="12" height="12" viewBox="0 0 12 12" fill="none" xmlns="http://www.w3.org/2000/svg">
<g clip-path="url(#clip0)">
<path d="M9.12328 7.93824C8.73123 7.5512 8.24181 7.5512 7.85226 7.93824C7.55511 8.2329 7.25795 8.52756 6.96579 8.82721C6.88589 8.90961 6.81847 8.92709 6.72108 8.87215C6.5288 8.76728 6.32404 8.68238 6.13926 8.56751C5.27776 8.02564 4.55611 7.32896 3.91685 6.54487C3.59972 6.15533 3.31755 5.73831 3.12028 5.26886C3.08033 5.17397 3.08782 5.11154 3.16523 5.03413C3.46238 4.74697 3.75204 4.45231 4.0442 4.15766C4.45123 3.74813 4.45123 3.26869 4.04171 2.85667C3.80948 2.62195 3.57725 2.39222 3.34502 2.15749C3.1053 1.91777 2.86807 1.67555 2.62586 1.43833C2.23381 1.05627 1.74439 1.05627 1.35484 1.44083C1.05519 1.73548 0.768024 2.03763 0.46338 2.32729C0.181209 2.59448 0.0388751 2.9216 0.00891004 3.30365C-0.0385346 3.92543 0.113788 4.51224 0.328537 5.08408C0.768024 6.26769 1.43724 7.31897 2.2488 8.28284C3.34502 9.58632 4.65349 10.6176 6.18421 11.3618C6.8734 11.6964 7.58757 11.9536 8.36416 11.996C8.89854 12.026 9.363 11.8911 9.73506 11.4741C9.98977 11.1895 10.2769 10.9298 10.5466 10.6576C10.9461 10.253 10.9486 9.76361 10.5516 9.36408C10.0772 8.88714 9.60022 8.41269 9.12328 7.93824Z" fill="url(#paint0_linear)"/>
<path d="M8.64627 5.94807L9.56769 5.79076C9.42286 4.94424 9.02333 4.17764 8.41653 3.56835C7.77478 2.9266 6.96323 2.52207 6.06927 2.39722L5.93942 3.32364C6.63112 3.42102 7.26038 3.73316 7.7573 4.23008C8.22675 4.69953 8.5339 5.29384 8.64627 5.94807Z" fill="url(#paint1_linear)"/>
<path d="M10.0871 1.94273C9.02333 0.878975 7.6774 0.207258 6.19163 0L6.06178 0.926419C7.34529 1.10621 8.50893 1.68803 9.42786 2.60446C10.2993 3.47594 10.8712 4.57716 11.0784 5.78825L11.9999 5.63093C11.7576 4.22757 11.0959 2.95405 10.0871 1.94273Z" fill="url(#paint2_linear)"/>
</g>
<defs>
<linearGradient id="paint0_linear" x1="5.42402" y1="1.1521" x2="5.42402" y2="12" gradientUnits="userSpaceOnUse">
<stop stop-color="#F7CD47"/>
<stop offset="1" stop-color="#F37500"/>
</linearGradient>
<linearGradient id="paint1_linear" x1="7.75356" y1="2.39722" x2="7.75356" y2="5.94807" gradientUnits="userSpaceOnUse">
<stop stop-color="#F7CD47"/>
<stop offset="1" stop-color="#F37500"/>
</linearGradient>
<linearGradient id="paint2_linear" x1="9.03082" y1="0" x2="9.03082" y2="5.78825" gradientUnits="userSpaceOnUse">
<stop stop-color="#F7CD47"/>
<stop offset="1" stop-color="#F37500"/>
</linearGradient>
<clipPath id="clip0">
<rect width="12" height="12" fill="white"/>
</clipPath>
</defs>
</svg>
