<svg width="18" height="18" viewBox="0 0 18 18" fill="none" xmlns="http://www.w3.org/2000/svg">
<g clip-path="url(#clip0)">
<path d="M13.6848 11.9075C13.0967 11.3269 12.3626 11.3269 11.7783 11.9075C11.3326 12.3495 10.8868 12.7915 10.4486 13.2409C10.3287 13.3645 10.2276 13.3908 10.0815 13.3084C9.7931 13.151 9.48596 13.0237 9.20878 12.8514C7.91654 12.0386 6.83405 10.9936 5.87517 9.81743C5.39947 9.23311 4.97622 8.60759 4.68031 7.90341C4.62038 7.76108 4.63162 7.66744 4.74773 7.55132C5.19346 7.12058 5.62796 6.67859 6.0662 6.23661C6.67673 5.62232 6.67673 4.90316 6.06245 4.28513C5.71411 3.93304 5.36576 3.58845 5.01742 3.23636C4.65784 2.87678 4.302 2.51345 3.93868 2.15762C3.35061 1.58453 2.61647 1.58453 2.03215 2.16136C1.58268 2.60335 1.15193 3.05657 0.694963 3.49106C0.271707 3.89184 0.0582058 4.38252 0.0132582 4.9556C-0.0579087 5.88826 0.170575 6.76849 0.492699 7.62624C1.15193 9.40166 2.15576 10.9786 3.37309 12.4244C5.01742 14.3796 6.98013 15.9266 9.2762 17.0427C10.31 17.5447 11.3812 17.9305 12.5461 17.9941C13.3477 18.0391 14.0444 17.8368 14.6025 17.2113C14.9845 16.7843 15.4153 16.3948 15.8198 15.9865C16.4191 15.3797 16.4229 14.6455 15.8273 14.0462C15.1156 13.3308 14.4002 12.6192 13.6848 11.9075Z" fill="#AAA5A5"/>
<path d="M12.9694 8.92199L14.3515 8.68601C14.1343 7.41625 13.535 6.26634 12.6248 5.3524C11.6622 4.38978 10.4448 3.78298 9.10391 3.5957L8.90913 4.98533C9.94667 5.13141 10.8906 5.59961 11.636 6.345C12.3401 7.04917 12.8008 7.94063 12.9694 8.92199Z" fill="#AAA5A5"/>
<path d="M15.1306 2.9141C13.535 1.31846 11.5161 0.310887 9.28744 0L9.09267 1.38963C11.0179 1.65931 12.7634 2.53205 14.1418 3.90669C15.449 5.21392 16.3068 6.86574 16.6176 8.68237L17.9998 8.4464C17.6364 6.34135 16.6439 4.43108 15.1306 2.9141Z" fill="#AAA5A5"/>
</g>
<defs>
<clipPath id="clip0">
<rect width="18" height="18" fill="white"/>
</clipPath>
</defs>
</svg>
