<svg width="12" height="12" viewBox="0 0 12 12" fill="none" xmlns="http://www.w3.org/2000/svg">
<g clip-path="url(#clip0)">
<path d="M1.15176 4.19213C1.30356 4.29925 1.76114 4.61738 2.52452 5.14638C3.28792 5.67538 3.87274 6.08269 4.27899 6.36834C4.32363 6.39965 4.41845 6.46772 4.56352 6.57263C4.70861 6.67762 4.82917 6.76245 4.9251 6.82716C5.0211 6.89185 5.13715 6.96442 5.27338 7.04475C5.40955 7.12501 5.53792 7.18538 5.65845 7.22535C5.77901 7.26565 5.89061 7.28561 5.99327 7.28561H6H6.00676C6.10942 7.28561 6.22106 7.26562 6.34162 7.22535C6.4621 7.18538 6.59059 7.12494 6.72665 7.04475C6.86278 6.96432 6.97883 6.89183 7.07483 6.82716C7.17083 6.76245 7.29129 6.67762 7.43643 6.57263C7.58148 6.46763 7.67642 6.39965 7.72105 6.36834C8.1317 6.08269 9.17644 5.35721 10.8549 4.19199C11.1808 3.96441 11.4531 3.6898 11.6718 3.36835C11.8907 3.04705 12 2.70998 12 2.35734C12 2.06266 11.8939 1.8104 11.6818 1.6006C11.4698 1.39075 11.2186 1.28589 10.9285 1.28589H1.07138C0.727657 1.28589 0.463135 1.40194 0.277867 1.63405C0.0926224 1.8662 0 2.15638 0 2.50457C0 2.78581 0.122808 3.09058 0.368308 3.41869C0.613784 3.74682 0.875022 4.00466 1.15176 4.19213Z" fill="url(#paint0_linear)"/>
<path d="M11.3303 4.90849C9.86613 5.89948 8.75438 6.66963 7.99555 7.2188C7.74109 7.40622 7.53467 7.55254 7.37614 7.65738C7.21761 7.76229 7.00678 7.86943 6.74334 7.97875C6.47999 8.08824 6.23456 8.14282 6.00684 8.14282H6.00001H5.99328C5.76561 8.14282 5.52004 8.08824 5.25669 7.97875C4.99334 7.86943 4.78237 7.76229 4.62389 7.65738C4.46545 7.55254 4.25896 7.40622 4.00452 7.2188C3.40181 6.77687 2.29245 6.00666 0.676407 4.90849C0.421878 4.73896 0.196432 4.54464 0 4.32593V9.64274C0 9.93757 0.104866 10.1897 0.314714 10.3995C0.524515 10.6094 0.776793 10.7143 1.07145 10.7143H10.9286C11.2232 10.7143 11.4755 10.6094 11.6853 10.3995C11.8952 10.1896 12 9.93759 12 9.64274V4.32593C11.808 4.54012 11.5849 4.73444 11.3303 4.90849Z" fill="url(#paint1_linear)"/>
</g>
<defs>
<linearGradient id="paint0_linear" x1="6" y1="1.28589" x2="6" y2="7.28561" gradientUnits="userSpaceOnUse">
<stop stop-color="#F7CD47"/>
<stop offset="1" stop-color="#F37500"/>
</linearGradient>
<linearGradient id="paint1_linear" x1="6" y1="4.32593" x2="6" y2="10.7143" gradientUnits="userSpaceOnUse">
<stop stop-color="#F7CD47"/>
<stop offset="1" stop-color="#F37500"/>
</linearGradient>
<clipPath id="clip0">
<rect width="12" height="12" fill="white"/>
</clipPath>
</defs>
</svg>
