<svg width="61" height="61" viewBox="0 0 61 61" fill="none" xmlns="http://www.w3.org/2000/svg">
<g clip-path="url(#clip0)">
<g filter="url(#filter0_d)">
<path d="M30.4742 0C17.768 0 7.48941 10.2786 7.48941 22.9848C7.48941 29.5961 10.7951 35.5876 14.0491 41.1143C18.0262 47.9844 22.7782 54.3886 28.3048 60.0703C29.4928 61.3094 31.4561 61.3094 32.6952 60.0703C37.5504 55.2667 41.8374 49.8433 45.453 44.0584C49.3268 37.8081 53.5106 30.577 53.5106 22.9848C53.4589 10.3302 43.1804 0 30.4742 0ZM30.4742 36.3107C22.7782 36.3107 16.5284 30.061 16.5284 22.3649C16.5284 14.6689 22.7782 8.41913 30.4742 8.41913C38.1702 8.41913 44.42 14.6173 44.42 22.3649C44.42 30.1126 38.1702 36.3107 30.4742 36.3107Z" fill="#4E4E4E"/>
</g>
</g>
<defs>
<filter id="filter0_d" x="-32.5106" y="-36" width="126.021" height="141" filterUnits="userSpaceOnUse" color-interpolation-filters="sRGB">
<feFlood flood-opacity="0" result="BackgroundImageFix"/>
<feColorMatrix in="SourceAlpha" type="matrix" values="0 0 0 0 0 0 0 0 0 0 0 0 0 0 0 0 0 0 127 0"/>
<feOffset dy="4"/>
<feGaussianBlur stdDeviation="20"/>
<feColorMatrix type="matrix" values="0 0 0 0 0 0 0 0 0 0 0 0 0 0 0 0 0 0 0.15 0"/>
<feBlend mode="normal" in2="BackgroundImageFix" result="effect1_dropShadow"/>
<feBlend mode="normal" in="SourceGraphic" in2="effect1_dropShadow" result="shape"/>
</filter>
<clipPath id="clip0">
<rect width="61" height="61" fill="white"/>
</clipPath>
</defs>
</svg>
