<svg width="92" height="92" viewBox="0 0 92 92" fill="none" xmlns="http://www.w3.org/2000/svg">
<path d="M55.2931 83.7956C54.5345 83.9846 53.7611 84.1525 52.9933 84.2939C50.9864 84.6671 49.6596 86.5973 50.0308 88.606C50.2142 89.5942 50.7754 90.4173 51.5374 90.9546C52.3227 91.5074 53.3222 91.757 54.3407 91.5675C55.255 91.3978 56.1764 91.1983 57.0805 90.9726C59.0623 90.4794 60.2697 88.4717 59.7753 86.4909C59.282 84.5083 57.2761 83.3019 55.2931 83.7956Z" fill="url(#paint0_linear)"/>
<path d="M82.6432 34.2225C82.9023 35.0033 83.3969 35.6407 84.0216 36.0811C84.9479 36.7336 86.16 36.9531 87.3168 36.5706C89.256 35.9267 90.3068 33.8355 89.6652 31.8972C89.3729 31.0136 89.0486 30.1272 88.7031 29.2642C87.9445 27.3676 85.7932 26.4443 83.8956 27.2029C82.0001 27.9611 81.0763 30.113 81.8355 32.0101C82.1258 32.7355 82.3978 33.4801 82.6432 34.2225Z" fill="url(#paint1_linear)"/>
<path d="M67.3111 78.515C66.6587 78.9458 65.9853 79.3626 65.307 79.7532C63.5372 80.7741 62.931 83.0363 63.9515 84.8053C64.2285 85.2865 64.5976 85.6798 65.0226 85.9804C66.1635 86.7832 67.713 86.9034 69.003 86.1602C69.8095 85.6951 70.6114 85.2002 71.3884 84.6865C73.0919 83.561 73.5608 81.2663 72.4348 79.562C71.3089 77.8571 69.0152 77.3888 67.3111 78.515Z" fill="url(#paint2_linear)"/>
<path d="M91.9648 44.5521C91.8843 42.5108 90.1649 40.922 88.123 41.0017C86.0837 41.0821 84.4937 42.8021 84.5738 44.8426C84.6044 45.6228 84.6123 46.4147 84.5943 47.194C84.5657 48.4742 85.1918 49.6153 86.1648 50.3011C86.7444 50.7093 87.4479 50.9563 88.2106 50.9737C90.252 51.019 91.9436 49.3999 91.9889 47.3576C92.0093 46.4263 92.0016 45.4828 91.9648 44.5521Z" fill="url(#paint3_linear)"/>
<path d="M82.0396 68.7857C80.4027 67.5576 78.0869 67.891 76.8609 69.5249C76.3915 70.1506 75.897 70.7687 75.3908 71.3637C74.0677 72.9182 74.2546 75.253 75.809 76.577C75.8976 76.6522 75.9872 76.7212 76.0802 76.786C77.6255 77.8755 79.7732 77.6252 81.0227 76.1589C81.6273 75.449 82.2166 74.7107 82.7776 73.9634C84.0038 72.3294 83.6719 70.012 82.0396 68.7857Z" fill="url(#paint4_linear)"/>
<path d="M87.4761 55.4162C85.5272 54.8051 83.4516 55.89 82.8409 57.839C82.6072 58.5836 82.3481 59.3317 82.0685 60.0645C81.4544 61.6774 82.0428 63.4522 83.3915 64.4032C83.6389 64.577 83.9114 64.7244 84.2075 64.8363C86.1157 65.5645 88.2526 64.6071 88.9799 62.6981C89.312 61.8269 89.6201 60.9368 89.8988 60.0516C90.5089 58.1022 89.4247 56.0273 87.4761 55.4162Z" fill="url(#paint5_linear)"/>
<path d="M39.1575 84.3271C35.8508 83.7334 32.6789 82.7225 29.6711 81.3124C29.6355 81.2938 29.6037 81.2726 29.5663 81.2556C28.8575 80.922 28.1499 80.5647 27.464 80.1913C27.4617 80.1885 27.4573 80.1867 27.4536 80.1851C26.1952 79.4922 24.9671 78.7254 23.774 77.8855C6.37623 65.6301 2.19312 41.5052 14.4494 24.1077C17.1144 20.326 20.3396 17.1711 23.9351 14.6705C23.9794 14.6397 24.0237 14.609 24.0676 14.578C36.7378 5.84787 53.9419 5.25953 67.3957 14.2305L64.5061 18.4055C63.7028 19.5676 64.197 20.4144 65.6033 20.2878L78.1548 19.1641C79.5629 19.0376 80.405 17.8195 80.0263 16.4597L76.6558 4.31579C76.2784 2.95438 75.3124 2.79143 74.5082 3.95329L71.612 8.13818C61.7388 1.51051 49.8969 -1.01673 38.1431 1.02143C36.9593 1.22632 35.7921 1.47708 34.6409 1.76898C34.632 1.77057 34.6249 1.77155 34.6178 1.77314C34.5733 1.78401 34.5282 1.79845 34.4849 1.81051C24.3495 4.41329 15.5064 10.3247 9.19635 18.7589C9.14315 18.822 9.08837 18.8837 9.03814 18.9523C8.82831 19.2349 8.62007 19.5241 8.41617 19.8132C8.08274 20.287 7.75406 20.7728 7.43961 21.2585C7.40026 21.317 7.3702 21.3765 7.33578 21.4357C2.12865 29.5046 -0.382961 38.8332 0.0477699 48.3302C0.0487588 48.3615 0.0469789 48.3929 0.0477699 48.425C0.0894982 49.3527 0.163067 50.2932 0.262938 51.2192C0.268277 51.2789 0.281527 51.3355 0.291613 51.3952C0.394846 52.3263 0.524382 53.2595 0.686747 54.1926C2.33689 63.7126 6.82773 72.2791 13.5571 78.9448C13.5727 78.9604 13.5889 78.9774 13.6047 78.9936C13.6103 78.9997 13.6164 79.0029 13.6217 79.0086C15.4297 80.7919 17.3963 82.4412 19.5137 83.9326C25.0551 87.8372 31.2255 90.4183 37.8522 91.6074C39.8629 91.9687 41.7836 90.6303 42.1443 88.6206C42.5048 86.6095 41.1675 84.6872 39.1575 84.3271Z" fill="url(#paint6_linear)"/>
<path d="M43.7305 16.4536C42.0765 16.4536 40.7369 17.7945 40.7369 19.446V49.2584L68.0027 63.3532C68.4415 63.5805 68.9114 63.6875 69.3738 63.6875C70.4567 63.6875 71.5027 63.0977 72.0345 62.0688C72.7929 60.6002 72.219 58.796 70.7504 58.0375L46.7207 45.6144V19.446C46.7205 17.7945 45.3824 16.4536 43.7305 16.4536Z" fill="url(#paint7_linear)"/>
<defs>
<linearGradient id="paint0_linear" x1="54.9273" y1="83.6851" x2="54.9273" y2="91.6303" gradientUnits="userSpaceOnUse">
<stop stop-color="#F7CD47"/>
<stop offset="1" stop-color="#F37500"/>
</linearGradient>
<linearGradient id="paint1_linear" x1="85.7117" y1="26.9375" x2="85.7117" y2="36.7587" gradientUnits="userSpaceOnUse">
<stop stop-color="#F7CD47"/>
<stop offset="1" stop-color="#F37500"/>
</linearGradient>
<linearGradient id="paint2_linear" x1="68.252" y1="77.9016" x2="68.252" y2="86.6555" gradientUnits="userSpaceOnUse">
<stop stop-color="#F7CD47"/>
<stop offset="1" stop-color="#F37500"/>
</linearGradient>
<linearGradient id="paint3_linear" x1="88.2854" y1="40.9988" x2="88.2854" y2="50.9746" gradientUnits="userSpaceOnUse">
<stop stop-color="#F7CD47"/>
<stop offset="1" stop-color="#F37500"/>
</linearGradient>
<linearGradient id="paint4_linear" x1="79.0134" y1="68.0446" x2="79.0134" y2="77.459" gradientUnits="userSpaceOnUse">
<stop stop-color="#F7CD47"/>
<stop offset="1" stop-color="#F37500"/>
</linearGradient>
<linearGradient id="paint5_linear" x1="85.947" y1="55.2458" x2="85.947" y2="65.0802" gradientUnits="userSpaceOnUse">
<stop stop-color="#F7CD47"/>
<stop offset="1" stop-color="#F37500"/>
</linearGradient>
<linearGradient id="paint6_linear" x1="40.0587" y1="0.33374" x2="40.0587" y2="91.6663" gradientUnits="userSpaceOnUse">
<stop stop-color="#F7CD47"/>
<stop offset="1" stop-color="#F37500"/>
</linearGradient>
<linearGradient id="paint7_linear" x1="56.553" y1="16.4536" x2="56.553" y2="63.6875" gradientUnits="userSpaceOnUse">
<stop stop-color="#F7CD47"/>
<stop offset="1" stop-color="#F37500"/>
</linearGradient>
</defs>
</svg>
