<svg width="92" height="92" viewBox="0 0 92 92" fill="none" xmlns="http://www.w3.org/2000/svg">
<path d="M46 16.3516C20.7651 16.3516 0 36.7454 0 62.1719V72.9531C0 74.4419 1.20657 75.6484 2.69531 75.6484H89.3047C90.7934 75.6484 92 74.4419 92 72.9531V62.1719C92 36.8963 71.343 16.3516 46 16.3516ZM78.5234 64.8672H86.6094V70.2578H5.39062V64.8672H13.4766C14.9653 64.8672 16.1719 63.6606 16.1719 62.1719C16.1719 60.6831 14.9653 59.4766 13.4766 59.4766H5.48328C6.08832 50.3651 9.73752 42.0693 15.4279 35.5908L21.0438 41.2074C22.0966 42.2603 23.803 42.2603 24.8558 41.2074C25.908 40.1545 25.908 38.4482 24.8558 37.3954L19.2448 31.785C25.7627 26.0891 34.1217 22.4357 43.3047 21.8334V29.8281C43.3047 31.3169 44.5113 32.5234 46 32.5234C47.4887 32.5234 48.6953 31.3169 48.6953 29.8281V21.8334C57.8783 22.4357 66.2373 26.0891 72.7552 31.7843L67.1442 37.3954C66.092 38.4482 66.092 40.1545 67.1442 41.2074C68.197 42.2596 69.9034 42.2603 70.9562 41.2074L76.5721 35.5908C82.2625 42.0693 85.9117 50.3651 86.5167 59.4766H78.5234C77.0347 59.4766 75.8281 60.6831 75.8281 62.1719C75.8281 63.6599 77.0347 64.8672 78.5234 64.8672Z" fill="url(#paint0_linear)"/>
<path d="M54.0859 62.1718C54.0859 60.9308 53.8045 59.7551 53.3026 58.7037L64.2439 47.9196C65.3038 46.8745 65.3164 45.1682 64.2713 44.1076C63.2261 43.0477 61.5198 43.0351 60.4599 44.0802L49.4997 54.8832C48.4398 54.3722 47.2529 54.0859 46 54.0859C41.5415 54.0859 37.9141 57.7133 37.9141 62.1718C37.9141 66.6303 41.5415 70.2577 46 70.2577C50.4585 70.2577 54.0859 66.6303 54.0859 62.1718ZM46 64.8671C44.5141 64.8671 43.3047 63.6577 43.3047 62.1718C43.3047 60.6859 44.5141 59.4765 46 59.4765C47.4859 59.4765 48.6953 60.6859 48.6953 62.1718C48.6953 63.6577 47.4859 64.8671 46 64.8671Z" fill="url(#paint1_linear)"/>
<defs>
<linearGradient id="paint0_linear" x1="46" y1="16.3516" x2="46" y2="75.6484" gradientUnits="userSpaceOnUse">
<stop stop-color="#F7CD47"/>
<stop offset="1" stop-color="#F37500"/>
</linearGradient>
<linearGradient id="paint1_linear" x1="51.4805" y1="43.3044" x2="51.4805" y2="70.2577" gradientUnits="userSpaceOnUse">
<stop stop-color="#F7CD47"/>
<stop offset="1" stop-color="#F37500"/>
</linearGradient>
</defs>
</svg>
