<svg width="92" height="92" viewBox="0 0 92 92" fill="none" xmlns="http://www.w3.org/2000/svg">
<g clip-path="url(#clip0)">
<path d="M23.674 65.4906C21.2896 65.4906 19.3499 67.4305 19.3499 69.8148C19.3499 72.1992 21.2896 74.139 23.674 74.139C26.0583 74.139 27.9982 72.1991 27.9982 69.8148C27.9982 67.4305 26.0583 65.4906 23.674 65.4906ZM23.674 71.4438C22.7758 71.4438 22.0452 70.7132 22.0452 69.815C22.0452 68.9167 22.7758 68.1861 23.674 68.1861C24.5721 68.1861 25.3029 68.9167 25.3029 69.815C25.3029 70.713 24.5721 71.4438 23.674 71.4438Z" fill="url(#paint0_linear)"/>
<path d="M51.954 65.4906C49.5695 65.4906 47.6296 67.4305 47.6296 69.8148C47.6296 72.1992 49.5695 74.139 51.954 74.139C54.3383 74.139 56.2782 72.1991 56.2782 69.8148C56.2782 67.4305 54.3385 65.4906 51.954 65.4906ZM51.954 71.4438C51.0557 71.4438 50.325 70.7132 50.325 69.815C50.325 68.9167 51.0557 68.1861 51.954 68.1861C52.8521 68.1861 53.5829 68.9167 53.5829 69.815C53.5829 70.713 52.8523 71.4438 51.954 71.4438Z" fill="url(#paint1_linear)"/>
<path d="M75.7685 65.4906C73.384 65.4906 71.4443 67.4305 71.4443 69.8148C71.4443 72.1992 73.384 74.139 75.7685 74.139C78.1529 74.139 80.0926 72.1991 80.0926 69.8148C80.0926 67.4305 78.1527 65.4906 75.7685 65.4906ZM75.7685 71.4438C74.8702 71.4438 74.1396 70.7132 74.1396 69.815C74.1396 68.9167 74.8702 68.1861 75.7685 68.1861C76.6665 68.1861 77.3973 68.9167 77.3973 69.815C77.3973 70.713 76.6665 71.4438 75.7685 71.4438Z" fill="url(#paint2_linear)"/>
<path d="M16.2317 44.3714H31.1159C31.8602 44.3714 32.4636 43.7682 32.4636 43.0237V31.1162C32.4636 30.3718 31.8602 29.7686 31.1159 29.7686H19.2086C18.5903 29.7686 18.0512 30.1894 17.9012 30.7894L14.9243 42.6969C14.8235 43.0996 14.9141 43.526 15.1694 43.8532C15.4249 44.18 15.8166 44.3714 16.2317 44.3714ZM20.2608 32.4639H29.7683V41.6761H17.9578L20.2608 32.4639Z" fill="url(#paint3_linear)"/>
<path d="M31.1159 50.6062H25.1624C24.4181 50.6062 23.8147 51.2094 23.8147 51.9539C23.8147 52.6983 24.4181 53.3015 25.1624 53.3015H31.1159C31.8602 53.3015 32.4636 52.6983 32.4636 51.9539C32.4636 51.2094 31.8604 50.6062 31.1159 50.6062Z" fill="url(#paint4_linear)"/>
<path d="M91.5294 30.093L70.6918 12.2321C70.4476 12.0228 70.1365 11.9076 69.8147 11.9076H29.6276C28.8833 11.9076 28.2799 12.5108 28.2799 13.2552C28.2799 13.9997 28.8833 14.6029 29.6276 14.6029H69.3163L89.3047 31.7359V68.4673H86.0462V37.0694C86.0462 36.6761 85.8743 36.3021 85.5756 36.0463L64.738 18.1853C64.4938 17.976 64.1828 17.8608 63.8609 17.8608H37.0695C37.0659 17.8608 37.0627 17.8614 37.0591 17.8614H20.5562V14.6029H24.237C24.9812 14.6029 25.5846 13.9997 25.5846 13.2552C25.5846 12.5108 24.9812 11.9076 24.237 11.9076H19.2154C19.2131 11.9076 19.2108 11.9072 19.2084 11.9072C19.2061 11.9072 19.2037 11.9076 19.2014 11.9076H10.2781C9.53386 11.9076 8.93047 12.5108 8.93047 13.2552V19.209C8.93047 19.9535 9.53386 20.5567 10.2781 20.5567H35.7219V23.8151H16.2321C15.652 23.8151 15.1371 24.1862 14.9536 24.7366L9.10063 42.2958L3.37184 48.0242C3.11902 48.2771 2.97706 48.6197 2.97706 48.9773V62.5135H1.34766C0.603391 62.5135 0 63.1167 0 63.8612V72.7922C0 73.5366 0.603391 74.1398 1.34766 74.1398H10.2787C11.0229 74.1398 11.6263 73.5366 11.6263 72.7922V71.1628H13.4872C14.1497 76.1951 18.4638 80.0932 23.6742 80.0932C28.8846 80.0932 33.1987 76.1951 33.8612 71.1628H37.0695H41.7669C42.4294 76.1951 46.7435 80.0932 51.9539 80.0932C57.1643 80.0932 61.4785 76.1951 62.141 71.1628H65.5814C66.244 76.1951 70.5581 80.0932 75.7685 80.0932C80.9787 80.0932 85.293 76.1953 85.9555 71.1629H90.6525C91.3968 71.1629 92.0002 70.5597 92.0002 69.8153V31.1162C92 30.7228 91.828 30.3489 91.5294 30.093ZM11.626 14.6029H17.8608V17.8614H11.626V14.6029ZM83.3509 37.6891V62.8842C81.4703 60.8284 78.7674 59.5366 75.7683 59.5366C72.954 59.5366 70.401 60.6744 68.5431 62.5132H59.1794C57.3214 60.6744 54.7684 59.5366 51.9541 59.5366C49.1397 59.5366 46.5867 60.6744 44.7287 62.5132H38.4172V25.1626V20.5559H63.3625L83.3509 37.6891ZM65.5814 68.4671H62.141C61.9886 67.3096 61.6436 66.2124 61.138 65.2085H66.5845C66.0788 66.2124 65.7338 67.3096 65.5814 68.4671ZM41.7669 68.4671H38.4172V65.2085H42.7699C42.2643 66.2124 41.9193 67.3096 41.7669 68.4671ZM8.93101 71.4443H2.69531V65.2086H8.93101V71.4443ZM10.2787 62.5132H5.6722V59.2547H11.7667C12.385 59.2547 12.924 58.8339 13.0741 58.2339L14.5624 52.2805C14.6632 51.8778 14.5727 51.4514 14.3173 51.1242C14.062 50.7972 13.6701 50.6058 13.255 50.6058H5.6722V49.5349L11.2312 43.9764C11.3791 43.8285 11.4907 43.6481 11.5568 43.4496L17.2033 26.5101H35.7219V68.4669H33.861C33.1985 63.4346 28.8844 59.5365 23.674 59.5365C18.4636 59.5365 14.1495 63.4346 13.487 68.4669H11.6263V63.8606C11.6263 63.1165 11.0229 62.5132 10.2787 62.5132ZM5.67255 56.5596V53.3015H11.5289L10.7144 56.5596H5.67255ZM23.674 77.3976C19.4929 77.3976 16.0912 73.9959 16.0912 69.8148C16.0912 65.6334 19.4929 62.2319 23.674 62.2319C27.8552 62.2319 31.2568 65.6336 31.2568 69.8148C31.2568 73.9961 27.8552 77.3976 23.674 77.3976ZM51.9539 77.3976C47.7726 77.3976 44.371 73.9959 44.371 69.8148C44.371 65.6334 47.7726 62.2319 51.9539 62.2319C56.1351 62.2319 59.5368 65.6336 59.5368 69.8148C59.5368 73.9961 56.1351 77.3976 51.9539 77.3976ZM75.7685 77.3976C71.5873 77.3976 68.1857 73.9959 68.1857 69.8148C68.1857 65.6334 71.5873 62.2319 75.7685 62.2319C79.9462 62.2319 83.3454 65.6279 83.3511 69.8043V69.8149C83.3511 69.816 83.3513 69.8173 83.3513 69.8183C83.3491 73.9981 79.9484 77.3976 75.7685 77.3976Z" fill="url(#paint5_linear)"/>
<path d="M47.8307 49.6855C48.0763 50.0828 48.5101 50.3246 48.9771 50.3246H66.8382C67.3052 50.3246 67.739 50.0828 67.9846 49.6855C68.2303 49.288 68.2526 48.7919 68.0436 48.3741L59.1131 30.5134C58.8849 30.057 58.4183 29.7686 57.9078 29.7686C57.3973 29.7686 56.9306 30.0568 56.7024 30.5134L47.7718 48.3741C47.5628 48.7919 47.5851 49.288 47.8307 49.6855ZM57.9078 34.1296L64.6577 47.6293H51.1578L57.9078 34.1296Z" fill="url(#paint6_linear)"/>
</g>
<defs>
<linearGradient id="paint0_linear" x1="23.674" y1="65.4906" x2="23.674" y2="74.139" gradientUnits="userSpaceOnUse">
<stop stop-color="#F7CD47"/>
<stop offset="1" stop-color="#F37500"/>
</linearGradient>
<linearGradient id="paint1_linear" x1="51.9539" y1="65.4906" x2="51.9539" y2="74.139" gradientUnits="userSpaceOnUse">
<stop stop-color="#F7CD47"/>
<stop offset="1" stop-color="#F37500"/>
</linearGradient>
<linearGradient id="paint2_linear" x1="75.7685" y1="65.4906" x2="75.7685" y2="74.139" gradientUnits="userSpaceOnUse">
<stop stop-color="#F7CD47"/>
<stop offset="1" stop-color="#F37500"/>
</linearGradient>
<linearGradient id="paint3_linear" x1="23.6738" y1="29.7686" x2="23.6738" y2="44.3714" gradientUnits="userSpaceOnUse">
<stop stop-color="#F7CD47"/>
<stop offset="1" stop-color="#F37500"/>
</linearGradient>
<linearGradient id="paint4_linear" x1="28.1391" y1="50.6062" x2="28.1391" y2="53.3015" gradientUnits="userSpaceOnUse">
<stop stop-color="#F7CD47"/>
<stop offset="1" stop-color="#F37500"/>
</linearGradient>
<linearGradient id="paint5_linear" x1="46.0001" y1="11.9072" x2="46.0001" y2="80.0932" gradientUnits="userSpaceOnUse">
<stop stop-color="#F7CD47"/>
<stop offset="1" stop-color="#F37500"/>
</linearGradient>
<linearGradient id="paint6_linear" x1="57.9077" y1="29.7686" x2="57.9077" y2="50.3246" gradientUnits="userSpaceOnUse">
<stop stop-color="#F7CD47"/>
<stop offset="1" stop-color="#F37500"/>
</linearGradient>
<clipPath id="clip0">
<rect width="92" height="92" fill="white"/>
</clipPath>
</defs>
</svg>
