<svg width="80" height="80" viewBox="0 0 80 80" fill="none" xmlns="http://www.w3.org/2000/svg">
<g clip-path="url(#clip0)">
<path d="M70.5131 73.3526H9.48688C6.23438 73.3526 3.59766 70.7159 3.59766 67.4634V16.6478C3.59766 13.3953 6.23438 10.7585 9.48688 10.7585H70.5131C73.7656 10.7585 76.4023 13.3953 76.4023 16.6478V67.4634C76.4023 70.7159 73.7656 73.3526 70.5131 73.3526Z" fill="url(#paint0_linear)"/>
<path d="M69.1522 71.9566H10.8478C7.74032 71.9566 5.2211 69.4373 5.2211 66.3298V17.7808C5.2211 14.6733 7.74016 12.1541 10.8478 12.1541H69.152C72.2595 12.1541 74.7788 14.6731 74.7788 17.7808V66.33C74.7789 69.4375 72.2597 71.9566 69.1522 71.9566Z" fill="url(#paint1_linear)"/>
<path d="M72.4564 27.1959L57.7775 1.77152C56.7998 0.0779248 54.634 -0.502388 52.9405 0.475581L6.65952 27.1959H72.4564Z" fill="url(#paint2_linear)"/>
<path d="M3.59766 47.6575H76.4023V28.3744C76.4023 25.9405 74.4294 23.9675 71.9955 23.9675H8.00453C5.57063 23.9675 3.59766 25.9405 3.59766 28.3744V47.6575Z" fill="url(#paint3_linear)"/>
<path d="M3.59766 40.4056V67.4634C3.59766 70.7159 6.23438 73.3528 9.48703 73.3528H70.5131C73.7656 73.3528 76.4023 70.716 76.4023 67.4635V40.4056C76.4023 38.3967 74.7738 36.7681 72.7648 36.7681H7.23516C5.22625 36.7681 3.59766 38.3965 3.59766 40.4056Z" fill="url(#paint4_linear)"/>
<path d="M65.4186 26.4495V73.3527H70.5131C73.7656 73.3527 76.4024 70.716 76.4024 67.4635V37.4332L65.4186 26.4495Z" fill="url(#paint5_linear)"/>
<path d="M60.4527 79.9557L9.34531 74.0201C6.06906 73.6394 3.59766 70.8646 3.59766 67.5663V16.2085C3.59766 17.3122 4.42469 18.2407 5.52078 18.368L61.9516 24.9221C65.2278 25.3027 67.6992 28.0776 67.6992 31.3758V73.5021C67.6992 77.3873 64.3119 80.4041 60.4527 79.9557Z" fill="url(#paint6_linear)"/>
<path d="M60.4527 69.6972L9.34531 63.7616C6.06906 63.381 3.59766 60.6061 3.59766 57.3079V67.5663C3.59766 70.8646 6.06906 73.6396 9.34531 74.02L60.4527 79.9557C64.3119 80.404 67.6994 77.3872 67.6994 73.5019V63.2435C67.6992 67.1288 64.3119 70.1454 60.4527 69.6972Z" fill="url(#paint7_linear)"/>
<path d="M8.17969 24.2134C8.13688 24.2134 8.09344 24.2109 8.04985 24.2063L5.7111 23.9491C5.06516 23.878 4.59906 23.297 4.67016 22.6513C4.74125 22.0055 5.32266 21.5399 5.96797 21.6103L8.30672 21.8675C8.95266 21.9386 9.41875 22.5195 9.34766 23.1653C9.28141 23.7677 8.77172 24.2134 8.17969 24.2134Z" fill="url(#paint8_linear)"/>
<path d="M56.2367 76.0797C56.1873 76.0797 56.137 76.0764 56.0867 76.0702L51.5412 75.4922C50.8969 75.4103 50.4406 74.8213 50.5227 74.1766C50.6047 73.5322 51.1936 73.0786 51.8383 73.158L56.3837 73.736C57.0281 73.8178 57.4845 74.4069 57.4023 75.0516C57.3266 75.6457 56.8203 76.0797 56.2367 76.0797ZM60.7108 75.4974C60.2695 75.4974 59.8462 75.2478 59.6458 74.8219C59.3687 74.2342 59.6208 73.5332 60.2086 73.2564C61.4022 72.6939 62.2998 71.7611 62.6716 70.6967C62.8858 70.0836 63.557 69.7602 64.1701 69.9739C64.7834 70.1882 65.1072 70.8591 64.893 71.4725C64.3059 73.1535 62.9986 74.543 61.2114 75.3849C61.0494 75.4611 60.8789 75.4974 60.7108 75.4974ZM47.1459 74.9238C47.0966 74.9238 47.0462 74.9205 46.9959 74.9142L42.4505 74.3363C41.8061 74.2544 41.3497 73.6653 41.4319 73.0207C41.5139 72.3763 42.1028 71.9225 42.7475 72.0021L47.293 72.58C47.9373 72.6619 48.3937 73.251 48.3116 73.8957C48.2358 74.4896 47.7292 74.9238 47.1459 74.9238ZM38.0552 73.7677C38.0058 73.7677 37.9556 73.7644 37.9052 73.7582L33.3597 73.1802C32.7153 73.0983 32.2589 72.5092 32.3411 71.8646C32.4231 71.2202 33.0122 70.7642 33.6567 70.846L38.2022 71.4239C38.8466 71.5058 39.303 72.0949 39.2208 72.7396C39.145 73.3335 38.6384 73.7677 38.0552 73.7677ZM28.9641 72.6116C28.9147 72.6116 28.8645 72.6083 28.8141 72.6021L24.2684 72.0239C23.6239 71.9419 23.1677 71.353 23.2498 70.7083C23.3319 70.0638 23.9211 69.61 24.5655 69.6897L29.1111 70.2678C29.7556 70.3499 30.2119 70.9388 30.1297 71.5835C30.0542 72.1777 29.5477 72.6116 28.9641 72.6116ZM19.8733 71.4555C19.8239 71.4555 19.7737 71.4522 19.7233 71.446L15.1777 70.8678C14.5331 70.7858 14.0769 70.1969 14.1591 69.5522C14.2411 68.9077 14.8303 68.4538 15.4747 68.5336L20.0203 69.1117C20.6648 69.1938 21.1211 69.7827 21.0389 70.4274C20.9633 71.0216 20.4569 71.4555 19.8733 71.4555ZM64.0462 67.7094C63.3964 67.7094 62.8698 67.1828 62.8698 66.533V61.951C62.8698 61.3011 63.3964 60.7746 64.0462 60.7746C64.6961 60.7746 65.2226 61.3011 65.2226 61.951V66.533C65.2228 67.1828 64.6962 67.7094 64.0462 67.7094ZM64.0462 58.5455C63.3964 58.5455 62.8698 58.0189 62.8698 57.3691V52.7871C62.8698 52.1372 63.3964 51.6107 64.0462 51.6107C64.6961 51.6107 65.2226 52.1372 65.2226 52.7871V57.3691C65.2228 58.0188 64.6962 58.5455 64.0462 58.5455ZM64.0462 49.3814C63.3964 49.3814 62.8698 48.8549 62.8698 48.205V43.623C62.8698 42.9732 63.3964 42.4466 64.0462 42.4466C64.6961 42.4466 65.2226 42.9732 65.2226 43.623V48.205C65.2228 48.8547 64.6962 49.3814 64.0462 49.3814ZM64.0462 40.2174C63.3964 40.2174 62.8698 39.6908 62.8698 39.041V34.4589C62.8698 33.8091 63.3964 33.2825 64.0462 33.2825C64.6961 33.2825 65.2226 33.8091 65.2226 34.4589V39.041C65.2228 39.6907 64.6962 40.2174 64.0462 40.2174ZM62.4009 31.5228C62.1105 31.5228 61.8194 31.4158 61.592 31.2003C60.72 30.3741 59.5098 29.8477 58.1841 29.7178L58.153 29.7146C57.5069 29.645 57.0395 29.0649 57.1092 28.4189C57.1787 27.7728 57.7587 27.3053 58.4048 27.3752L58.4248 27.3774C60.2572 27.5569 61.9606 28.3085 63.2105 29.4924C63.6822 29.9392 63.7022 30.6839 63.2553 31.1557C63.0237 31.3996 62.7126 31.5228 62.4009 31.5228ZM53.7255 29.2207C53.6826 29.2207 53.6392 29.2182 53.5956 29.2135L49.0411 28.7127C48.3953 28.6416 47.9291 28.0607 48.0001 27.4149C48.0712 26.7691 48.6526 26.3042 49.298 26.3739L53.8525 26.8747C54.4983 26.9458 54.9645 27.5267 54.8934 28.1725C54.8273 28.7747 54.3175 29.2207 53.7255 29.2207ZM44.6166 28.2191C44.5737 28.2191 44.5303 28.2166 44.4867 28.2119L39.932 27.7111C39.2862 27.64 38.82 27.0591 38.8911 26.4133C38.962 25.7674 39.5444 25.3021 40.1889 25.3724L44.7436 25.8732C45.3894 25.9442 45.8556 26.5252 45.7845 27.171C45.7183 27.7733 45.2086 28.2191 44.6166 28.2191ZM35.5072 27.2177C35.4644 27.2177 35.4209 27.2152 35.3773 27.2105L30.8228 26.7097C30.177 26.6386 29.7108 26.0577 29.7819 25.4119C29.8528 24.7661 30.4339 24.3008 31.0797 24.371L35.6342 24.8717C36.28 24.9428 36.7462 25.5238 36.6752 26.1696C36.6091 26.7717 36.0994 27.2177 35.5072 27.2177ZM26.398 26.2163C26.3552 26.2163 26.3117 26.2138 26.2681 26.2091L21.7136 25.7083C21.0677 25.6372 20.6016 25.0563 20.6727 24.4105C20.7436 23.7649 21.3241 23.2997 21.9705 23.3696L26.525 23.8703C27.1708 23.9414 27.637 24.5224 27.5659 25.1682C27.5 25.7703 26.9902 26.2163 26.398 26.2163ZM17.2887 25.2147C17.2459 25.2147 17.2025 25.2122 17.1589 25.2075L12.6044 24.7067C11.9586 24.6357 11.4923 24.0547 11.5634 23.4089C11.6345 22.7633 12.2152 22.2983 12.8612 22.368L17.4158 22.8688C18.0617 22.9399 18.5278 23.5208 18.4567 24.1666C18.3906 24.7688 17.8808 25.2147 17.2887 25.2147Z" fill="url(#paint9_linear)"/>
<path d="M10.7714 70.2981C10.722 70.2981 10.672 70.295 10.6216 70.2886L8.28735 69.9919C7.64282 69.91 7.18641 69.321 7.2686 68.6764C7.35048 68.0319 7.93954 67.5759 8.58407 67.6577L10.9183 67.9544C11.5628 68.0363 12.0192 68.6253 11.937 69.2699C11.8614 69.8641 11.3548 70.2981 10.7714 70.2981Z" fill="url(#paint10_linear)"/>
<path d="M53.995 8.76044L46.4656 12.8576C45.4848 13.3912 44.2572 13.0289 43.7234 12.0481C43.1898 11.0673 43.5522 9.83966 44.533 9.30591L52.0625 5.20888C53.0433 4.67528 54.2709 5.03763 54.8047 6.01841C55.3383 6.99904 54.9759 8.22685 53.995 8.76044Z" fill="#61DB99"/>
<path d="M67.6992 56.8471L60.2272 49.375C59.173 48.2271 57.6601 47.5071 55.9787 47.5071C52.7934 47.5071 50.2112 50.0894 50.2112 53.2746C50.2112 54.956 50.9312 56.469 52.0792 57.523L67.6994 73.1432V56.8471H67.6992Z" fill="url(#paint11_linear)"/>
<path d="M55.9781 59.0413C59.1634 59.0413 61.7456 56.4591 61.7456 53.2738C61.7456 50.0885 59.1634 47.5063 55.9781 47.5063C52.7928 47.5063 50.2106 50.0885 50.2106 53.2738C50.2106 56.4591 52.7928 59.0413 55.9781 59.0413Z" fill="url(#paint12_linear)"/>
<path d="M55.9781 57.2541C58.1764 57.2541 59.9584 55.472 59.9584 53.2738C59.9584 51.0755 58.1764 49.2935 55.9781 49.2935C53.7798 49.2935 51.9978 51.0755 51.9978 53.2738C51.9978 55.472 53.7798 57.2541 55.9781 57.2541Z" fill="url(#paint13_linear)"/>
<path d="M54.4659 52.5854C54.9208 52.5854 55.2895 52.2167 55.2895 51.7618C55.2895 51.307 54.9208 50.9382 54.4659 50.9382C54.0111 50.9382 53.6423 51.307 53.6423 51.7618C53.6423 52.2167 54.0111 52.5854 54.4659 52.5854Z" fill="url(#paint14_linear)"/>
<path d="M57.4903 52.5854C57.9452 52.5854 58.3139 52.2167 58.3139 51.7618C58.3139 51.307 57.9452 50.9382 57.4903 50.9382C57.0355 50.9382 56.6667 51.307 56.6667 51.7618C56.6667 52.2167 57.0355 52.5854 57.4903 52.5854Z" fill="url(#paint15_linear)"/>
<path d="M54.4659 55.6111C54.9208 55.6111 55.2895 55.2423 55.2895 54.7875C55.2895 54.3326 54.9208 53.9639 54.4659 53.9639C54.0111 53.9639 53.6423 54.3326 53.6423 54.7875C53.6423 55.2423 54.0111 55.6111 54.4659 55.6111Z" fill="url(#paint16_linear)"/>
<path d="M57.4903 55.6111C57.9452 55.6111 58.3139 55.2423 58.3139 54.7875C58.3139 54.3326 57.9452 53.9639 57.4903 53.9639C57.0355 53.9639 56.6667 54.3326 56.6667 54.7875C56.6667 55.2423 57.0355 55.6111 57.4903 55.6111Z" fill="url(#paint17_linear)"/>
</g>
<defs>
<linearGradient id="paint0_linear" x1="41.1897" y1="7.15063" x2="40.7646" y2="19.614" gradientUnits="userSpaceOnUse">
<stop stop-color="#FFB92D"/>
<stop offset="1" stop-color="#F59500"/>
</linearGradient>
<linearGradient id="paint1_linear" x1="43.2278" y1="15.4258" x2="42.0702" y2="24.9739" gradientUnits="userSpaceOnUse">
<stop stop-color="#FFB92D"/>
<stop offset="1" stop-color="#F59500"/>
</linearGradient>
<linearGradient id="paint2_linear" x1="39.5571" y1="15.7086" x2="39.5571" y2="22.9821" gradientUnits="userSpaceOnUse">
<stop stop-color="#A7F3CE"/>
<stop offset="1" stop-color="#61DB99"/>
</linearGradient>
<linearGradient id="paint3_linear" x1="39.9992" y1="28.2991" x2="39.9992" y2="48.7097" gradientUnits="userSpaceOnUse">
<stop stop-color="#FF4C54"/>
<stop offset="1" stop-color="#BE3F45"/>
</linearGradient>
<linearGradient id="paint4_linear" x1="39.9992" y1="43.4551" x2="39.9992" y2="74.9775" gradientUnits="userSpaceOnUse">
<stop stop-color="#FF4C54"/>
<stop offset="1" stop-color="#BE3F45"/>
</linearGradient>
<linearGradient id="paint5_linear" x1="72.2605" y1="49.9017" x2="66.9492" y2="49.9017" gradientUnits="userSpaceOnUse">
<stop stop-color="#BE3F45" stop-opacity="0"/>
<stop offset="1" stop-color="#BE3F45"/>
</linearGradient>
<linearGradient id="paint6_linear" x1="24.7594" y1="44.4491" x2="51.7784" y2="56.9125" gradientUnits="userSpaceOnUse">
<stop stop-color="#FFB92D"/>
<stop offset="1" stop-color="#F59500"/>
</linearGradient>
<linearGradient id="paint7_linear" x1="34.787" y1="72.1994" x2="33.6702" y2="80.7357" gradientUnits="userSpaceOnUse">
<stop stop-color="#BE3F45" stop-opacity="0"/>
<stop offset="1" stop-color="#BE3F45"/>
</linearGradient>
<linearGradient id="paint8_linear" x1="7.00868" y1="21.6044" x2="7.00868" y2="76.193" gradientUnits="userSpaceOnUse">
<stop stop-color="#FFF465"/>
<stop offset="1" stop-color="#FFE600"/>
</linearGradient>
<linearGradient id="paint9_linear" x1="38.3887" y1="21.6059" x2="38.3887" y2="76.0801" gradientUnits="userSpaceOnUse">
<stop stop-color="#FFF465"/>
<stop offset="1" stop-color="#FFE600"/>
</linearGradient>
<linearGradient id="paint10_linear" x1="9.60251" y1="21.603" x2="9.60251" y2="76.1902" gradientUnits="userSpaceOnUse">
<stop stop-color="#FFF465"/>
<stop offset="1" stop-color="#FFE600"/>
</linearGradient>
<linearGradient id="paint11_linear" x1="63.6754" y1="60.9732" x2="47.5127" y2="44.8104" gradientUnits="userSpaceOnUse">
<stop stop-color="#BE3F45" stop-opacity="0"/>
<stop offset="1" stop-color="#BE3F45"/>
</linearGradient>
<linearGradient id="paint12_linear" x1="55.9769" y1="49.6542" x2="55.9769" y2="57.9944" gradientUnits="userSpaceOnUse">
<stop stop-color="#FF4C54"/>
<stop offset="1" stop-color="#BE3F45"/>
</linearGradient>
<linearGradient id="paint13_linear" x1="55.9769" y1="55.7732" x2="55.9769" y2="50.018" gradientUnits="userSpaceOnUse">
<stop stop-color="#FF4C54"/>
<stop offset="1" stop-color="#BE3F45"/>
</linearGradient>
<linearGradient id="paint14_linear" x1="46.6587" y1="17.2894" x2="48.3057" y2="24.563" gradientUnits="userSpaceOnUse">
<stop stop-color="#A7F3CE"/>
<stop offset="1" stop-color="#61DB99"/>
</linearGradient>
<linearGradient id="paint15_linear" x1="49.683" y1="17.2897" x2="51.33" y2="24.5633" gradientUnits="userSpaceOnUse">
<stop stop-color="#A7F3CE"/>
<stop offset="1" stop-color="#61DB99"/>
</linearGradient>
<linearGradient id="paint16_linear" x1="46.007" y1="17.4367" x2="47.654" y2="24.7103" gradientUnits="userSpaceOnUse">
<stop stop-color="#A7F3CE"/>
<stop offset="1" stop-color="#61DB99"/>
</linearGradient>
<linearGradient id="paint17_linear" x1="49.0313" y1="17.4371" x2="50.6783" y2="24.7107" gradientUnits="userSpaceOnUse">
<stop stop-color="#A7F3CE"/>
<stop offset="1" stop-color="#61DB99"/>
</linearGradient>
<clipPath id="clip0">
<rect width="80" height="80" fill="white"/>
</clipPath>
</defs>
</svg>
