<svg width="80" height="80" viewBox="0 0 80 80" fill="none" xmlns="http://www.w3.org/2000/svg">
<g clip-path="url(#clip0)">
<path d="M80 40C80 62.0917 62.0917 80 40 80C33.3026 80 26.991 78.3545 21.4465 75.4468C19.5593 74.4556 17.76 73.3191 16.0638 72.0508C15.1788 71.3892 14.3231 70.6921 13.4985 69.9609C5.21973 62.6337 0 51.9263 0 40C0 17.9083 17.9083 0 40 0C62.0917 0 80 17.9083 80 40Z" fill="#FFE152"/>
<path d="M59.7064 70.2461V74.8164C55.7141 77.082 51.2933 78.6787 46.5961 79.4575C45.5884 79.6241 44.5697 79.7548 43.5394 79.8445C42.8979 79.9019 42.2516 79.9427 41.5997 79.9672C41.0693 79.9897 40.5353 79.9995 40 79.9995C38.8049 79.9995 37.6245 79.9476 36.4569 79.8445C33.4955 79.5851 30.6268 79.0022 27.8857 78.1318C25.2246 77.2877 22.6825 76.1714 20.2936 74.8164V70.2461C20.2936 63.3699 24.9634 57.5837 31.3062 55.887C31.5381 55.8253 31.7712 55.7679 32.0081 55.7173C32.6385 55.58 33.2849 55.4854 33.9429 55.4316C34.3445 55.3987 34.7491 55.3828 35.1593 55.3828H44.8395C45.9216 55.3828 46.9763 55.4969 47.9919 55.7173C48.0505 55.7289 48.1091 55.7417 48.1665 55.7551C48.338 55.7942 48.5095 55.8363 48.6774 55.8821C48.6823 55.8839 48.6859 55.8839 48.6908 55.8857C50.3644 56.3331 51.9214 57.0662 53.3063 58.0275C57.1741 60.7118 59.7064 65.1832 59.7064 70.2461Z" fill="#3D4159"/>
<path d="M48.7268 55.717L48.6908 55.8855L43.5394 79.8442C42.3737 79.9474 41.192 79.9993 40 79.9993C38.8049 79.9993 37.6245 79.9474 36.4569 79.8442L31.3062 55.8867L31.2701 55.717H48.7268Z" fill="#F2F0EC"/>
<path d="M43.9899 60.7458L39.9994 67.146L36.0089 60.7458" fill="#F74F4F"/>
<path d="M43.6835 79.8303C42.4701 79.9426 41.2408 80 40 80C38.7573 80 37.5281 79.9426 36.3153 79.8315L40 65.481L43.6835 79.8303Z" fill="#F74F4F"/>
<path d="M39.9982 61.468L33.3063 65.1869L31.2701 55.7179L35.4285 53.2686" fill="#D8D5D0"/>
<path d="M39.9982 61.468L46.6907 65.1869L48.7262 55.7179L44.5679 53.2686" fill="#D8D5D0"/>
<path d="M53.3063 57.2113L48.9795 68.4961H51.1023L46.5961 79.4574C45.5884 79.624 44.5697 79.7546 43.5394 79.8444C42.8979 79.9017 42.2516 79.9426 41.5997 79.967L48.7268 54.9011L53.3063 57.2113Z" fill="#2A2F4F"/>
<path d="M26.6418 57.2113L30.968 68.4961H28.8458L33.3521 79.4574C34.3591 79.624 35.3778 79.7546 36.4081 79.8444C37.0496 79.9017 37.6965 79.9426 38.3478 79.967L31.2701 55.0659L26.6418 57.2113Z" fill="#2A2F4F"/>
<path d="M45.3027 49.6562V56.165C45.3027 58.5479 43.7317 60.562 41.5674 61.231C41.0724 61.3848 40.5444 61.4678 39.9982 61.4678C37.0691 61.4678 34.6954 59.0941 34.6954 56.165V49.6562H45.3027Z" fill="#EAB599"/>
<path d="M45.3027 55.7532V56.1652C45.3027 58.548 43.7317 60.5621 41.5674 61.2311C39.6149 60.6311 38.147 58.9331 37.876 56.8561C38.23 56.8774 38.5864 56.8884 38.9441 56.8884C39.9475 56.8884 40.9314 56.8091 41.889 56.6516C43.0701 56.4618 44.2108 56.1578 45.3027 55.7532Z" fill="#F6CAAE"/>
<path d="M25.451 38.9899C25.451 41.4447 23.6572 43.4808 21.3086 43.8586C21.0522 43.9001 20.788 43.9215 20.5188 43.9215C17.7942 43.9215 15.5865 41.7145 15.5865 38.9899C15.5865 36.2653 17.7942 34.0576 20.5188 34.0576C20.788 34.0576 21.0522 34.0796 21.3086 34.1211C23.6572 34.4989 25.451 36.5344 25.451 38.9899Z" fill="#F6CAAE"/>
<path d="M25.451 38.9899C25.451 41.4447 23.6572 43.4808 21.3086 43.8586C20.882 42.3071 20.6543 40.6744 20.6543 38.9899C20.6543 37.3047 20.882 35.672 21.3086 34.1211C23.6572 34.4989 25.451 36.5344 25.451 38.9899Z" fill="#EAB599"/>
<path d="M22.2815 38.99C22.2815 39.9635 21.4923 40.7527 20.5188 40.7527C19.5453 40.7527 18.7561 39.9635 18.7561 38.99C18.7561 38.0165 19.5453 37.2273 20.5188 37.2273C21.4923 37.2273 22.2815 38.0165 22.2815 38.99Z" fill="#EAB599"/>
<path d="M54.5471 38.9899C54.5471 41.4447 56.3403 43.4808 58.689 43.8586C58.9459 43.9001 59.2096 43.9215 59.4794 43.9215C62.204 43.9215 64.411 41.7145 64.411 38.9899C64.411 36.2653 62.204 34.0576 59.4794 34.0576C59.2096 34.0576 58.9459 34.0796 58.689 34.1211C56.3403 34.4989 54.5471 36.5344 54.5471 38.9899Z" fill="#F6CAAE"/>
<path d="M54.5471 38.9899C54.5471 41.4447 56.3403 43.4808 58.689 43.8586C59.1156 42.3071 59.3439 40.6744 59.3439 38.9899C59.3439 37.3047 59.1162 35.672 58.689 34.1211C56.3403 34.4989 54.5471 36.5344 54.5471 38.9899Z" fill="#EAB599"/>
<path d="M58.3496 29.3811V36.369C58.3496 45.5005 51.6785 53.0762 42.9437 54.4818C42.9144 54.4867 42.8833 54.4916 42.854 54.4965C41.925 54.6448 40.9717 54.7186 39.9982 54.7186C29.8645 54.7186 21.6492 46.5027 21.6492 36.369V29.3811C21.6492 27.2473 22.0129 25.1965 22.6855 23.2916C25.1953 16.1499 32.0001 11.0303 39.9982 11.0303H40C40.9717 11.0303 41.9263 11.1053 42.8571 11.2524C51.6345 12.6239 58.3496 20.2185 58.3496 29.3811Z" fill="#EAB599"/>
<path d="M61.2421 38.99C61.2421 39.9635 60.4529 40.7527 59.4794 40.7527C58.5059 40.7527 57.7167 39.9635 57.7167 38.99C57.7167 38.0165 58.5059 37.2273 59.4794 37.2273C60.4529 37.2273 61.2421 38.0165 61.2421 38.99Z" fill="#EAB599"/>
<path d="M58.3496 29.3811V36.369C58.3496 45.5005 51.6785 53.0762 42.9437 54.4818C42.9144 54.4867 42.8833 54.4916 42.854 54.4965C34.0765 53.125 27.3633 45.5298 27.3633 36.369V29.3811C27.3633 20.2185 34.0784 12.6239 42.8571 11.2524C51.6345 12.6239 58.3496 20.2185 58.3496 29.3811Z" fill="#F6CAAE"/>
<path d="M36.0913 35.3004C36.0913 36.4503 35.1593 37.3817 34.0094 37.3817C32.8601 37.3817 31.9281 36.4503 31.9281 35.3004C31.9281 34.1505 32.8601 33.2185 34.0094 33.2185C35.1593 33.2185 36.0913 34.1505 36.0913 35.3004Z" fill="#3D4159"/>
<path d="M48.0707 35.3004C48.0707 36.4503 47.1387 37.3817 45.9888 37.3817C44.8395 37.3817 43.9075 36.4503 43.9075 35.3004C43.9075 34.1505 44.8395 33.2185 45.9888 33.2185C47.1387 33.2185 48.0707 34.1505 48.0707 35.3004Z" fill="#3D4159"/>
<path d="M35.6665 34.9327C35.6665 35.4253 35.2673 35.8245 34.7748 35.8245C34.2822 35.8245 33.8831 35.4253 33.8831 34.9327C33.8831 34.4402 34.2822 34.041 34.7748 34.041C35.2673 34.041 35.6665 34.4402 35.6665 34.9327Z" fill="white"/>
<path d="M47.7484 34.9327C47.7484 35.4253 47.3486 35.8245 46.8561 35.8245C46.3635 35.8245 45.9644 35.4253 45.9644 34.9327C45.9644 34.4402 46.3635 34.041 46.8561 34.041C47.3486 34.041 47.7484 34.4402 47.7484 34.9327Z" fill="white"/>
<path d="M42.0807 39.7252H37.9175C37.4213 39.7252 37.0197 39.323 37.0197 38.8268C37.0197 38.3312 37.4213 37.929 37.9175 37.929H42.0807C42.5769 37.929 42.9785 38.3312 42.9785 38.8268C42.9785 39.323 42.5769 39.7252 42.0807 39.7252Z" fill="#EAB599"/>
<path d="M39.9994 45.4066C38.4625 45.4066 36.9263 45.0215 35.5255 44.2518C35.13 44.0345 34.986 43.5383 35.2033 43.1428C35.4205 42.7479 35.9168 42.6039 36.3117 42.8205C38.6206 44.0901 41.3776 44.0901 43.6865 42.8205C44.0814 42.6039 44.5776 42.7479 44.7949 43.1428C45.0122 43.5383 44.8682 44.0345 44.4727 44.2518C43.0725 45.0215 41.5357 45.4066 39.9994 45.4066Z" fill="#EAB599"/>
<path d="M58.3496 23.0396V30.1978H54.9341V24.5923L30.2808 20.011L25.0647 19.0411V30.1978H21.6492V23.0396C21.6492 14.8798 28.2629 8.26538 36.4215 8.26538H43.5773C43.7714 8.26538 43.9655 8.26904 44.1602 8.27881C52.0471 8.58215 58.3496 15.0739 58.3496 23.0396Z" fill="#2A2F4F"/>
<path d="M58.3496 23.0396V30.1978H54.9341V24.5923L30.2808 20.011C31.6394 13.4869 37.2998 8.54309 44.1602 8.27881C52.0471 8.58215 58.3496 15.0739 58.3496 23.0396Z" fill="#3D4159"/>
<path d="M35.7141 59.9445L34.0717 62.0801L29.5868 63.277L26.9385 63.9819L24.8718 62.077C24.8145 62.0227 24.7559 61.9708 24.7003 61.9153C18.8751 56.4783 16.1224 52.204 13.5852 44.6497C13.559 44.5764 13.5345 44.5013 13.5101 44.4263L12.63 41.7566L14.3707 39.6375L17.3157 36.0504L19.9365 35.4382L20.343 36.4716L21.4874 39.3829L23.1445 43.5986L20.9875 45.5676L19.5313 46.8964C20.199 49.0369 23.4448 54.0784 25.1166 55.5737L26.9287 54.7986L29.613 53.6456L32.7655 56.9031L34.942 59.1492L34.9438 59.1479L35.7141 59.9445Z" fill="#66BAED"/>
<path d="M29.6136 53.6462L26.9287 54.7986L34.0723 62.0795L35.7141 59.9451L29.6136 53.6462Z" fill="#F2F0EC"/>
<path d="M23.1451 43.5986L20.9851 45.5658L17.3145 36.0486L19.9371 35.4382L23.1451 43.5986Z" fill="#F2F0EC"/>
<path d="M29.5868 63.277L26.9385 63.9819L24.8718 62.077C24.8145 62.0227 24.7559 61.9708 24.7003 61.9153C18.8751 56.4783 16.1224 52.204 13.5852 44.6497C13.559 44.5764 13.5345 44.5013 13.5101 44.4263L12.63 41.7566L14.3707 39.6375C14.3707 39.6375 14.9255 54.0997 29.5856 63.2751C29.5856 63.2751 29.5868 63.2751 29.5868 63.277Z" fill="#2BA1CF"/>
<path d="M24.657 53.77L22.1747 56.2517C21.5131 56.9134 20.6464 57.2448 19.7797 57.2436C19.2285 57.2448 18.6768 57.1111 18.1781 56.8432C17.8931 56.6894 17.6251 56.4934 17.384 56.2523C16.0608 54.9291 16.0608 52.7843 17.384 51.4611L19.8657 48.9788C21.189 47.6562 23.3337 47.6562 24.657 48.9788C24.8981 49.2205 25.0946 49.4878 25.2478 49.7735C25.9375 51.0558 25.7385 52.6879 24.657 53.77Z" fill="#EAB599"/>
<path d="M24.657 53.77L22.1747 56.2517C21.5131 56.9133 20.6464 57.2447 19.7797 57.2435C19.2285 57.2447 18.6768 57.111 18.1781 56.8431C17.489 55.5608 17.6874 53.9281 18.7689 52.8465L21.2512 50.3642C22.3328 49.2827 23.9655 49.0837 25.2478 49.7734C25.9375 51.0557 25.7385 52.6878 24.657 53.77Z" fill="#F6CAAE"/>
<path d="M21.4466 75.4468C19.5593 74.4556 17.76 73.3191 16.0639 72.0508C15.1789 71.3892 14.3231 70.6921 13.4986 69.9609C13.3551 64.9634 14.1828 59.9445 15.979 55.1904C16.6956 55.4614 17.414 55.7324 18.1305 56.0034C19.6784 56.5875 21.2262 57.1741 22.7753 57.7582C20.6305 63.4351 20.188 69.577 21.4466 75.4468Z" fill="#2A2F4F"/>
<path d="M21.4466 75.4468C19.5593 74.4556 17.76 73.3191 16.0639 72.0508C15.6165 66.6516 16.3056 61.1823 18.1305 56.0034C19.6784 56.5875 21.2262 57.1741 22.7753 57.7582C20.6305 63.4351 20.188 69.577 21.4466 75.4468Z" fill="#3D4159"/>
<path d="M46.0638 2.65625H75.8356V25.0354H46.0638V2.65625Z" fill="#F2F0EC"/>
<path d="M61.1884 23.6365L57.9913 31.2292L71.9782 23.2373L61.1884 23.6365Z" fill="#F2F0EC"/>
<path d="M57.4799 13.8458C57.4799 15.0043 56.5405 15.9436 55.3821 15.9436C54.223 15.9436 53.2837 15.0043 53.2837 13.8458C53.2837 12.6874 54.223 11.748 55.3821 11.748C56.5405 11.748 57.4799 12.6874 57.4799 13.8458Z" fill="#3D4159"/>
<path d="M63.0475 13.8458C63.0475 15.0043 62.1082 15.9436 60.9497 15.9436C59.7913 15.9436 58.8519 15.0043 58.8519 13.8458C58.8519 12.6874 59.7913 11.748 60.9497 11.748C62.1082 11.748 63.0475 12.6874 63.0475 13.8458Z" fill="#3D4159"/>
<path d="M68.6157 13.8458C68.6157 15.0043 67.6764 15.9436 66.5173 15.9436C65.3589 15.9436 64.4196 15.0043 64.4196 13.8458C64.4196 12.6874 65.3589 11.748 66.5173 11.748C67.6764 11.748 68.6157 12.6874 68.6157 13.8458Z" fill="#3D4159"/>
</g>
<defs>
<clipPath id="clip0">
<rect width="80" height="80" fill="white"/>
</clipPath>
</defs>
</svg>
