<svg width="80" height="80" viewBox="0 0 80 80" fill="none" xmlns="http://www.w3.org/2000/svg">
<path d="M20 25C20 23.62 18.88 22.5 17.5 22.5H2.5C1.12 22.5 0 23.62 0 25C0 26.38 1.12 27.5 2.5 27.5H17.5C18.88 27.5 20 26.38 20 25Z" fill="#FFC107"/>
<path d="M17.5 32.5H7.5C6.12 32.5 5 33.62 5 35C5 36.38 6.12 37.5 7.5 37.5H17.5C18.88 37.5 20 36.38 20 35C20 33.62 18.88 32.5 17.5 32.5Z" fill="#FFC107"/>
<path d="M17.5 42.5H12.5C11.12 42.5 10 43.62 10 45C10 46.38 11.12 47.5 12.5 47.5H17.5C18.88 47.5 20 46.38 20 45C20 43.62 18.88 42.5 17.5 42.5Z" fill="#FFC107"/>
<path d="M79.645 41.215L72.145 28.715C71.695 27.96 70.88 27.5 70 27.5H52.5C51.12 27.5 50 28.62 50 30V55C50 56.38 51.12 57.5 52.5 57.5H77.5C78.88 57.5 80 56.38 80 55V42.5C80 42.045 79.88 41.6 79.645 41.215Z" fill="#F44336"/>
<path d="M60 32.5H68.585L74.585 42.5H60V32.5Z" fill="#FAFAFA"/>
<path d="M52.5 17.5H17.5C16.12 17.5 15 18.62 15 20V55C15 56.38 16.12 57.5 17.5 57.5H55V20C55 18.62 53.88 17.5 52.5 17.5Z" fill="#FFC107"/>
<path d="M67.5 60C70.2614 60 72.5 57.7614 72.5 55C72.5 52.2386 70.2614 50 67.5 50C64.7386 50 62.5 52.2386 62.5 55C62.5 57.7614 64.7386 60 67.5 60Z" fill="#FAFAFA"/>
<path d="M67.5 62.5C63.365 62.5 60 59.135 60 55C60 50.865 63.365 47.5 67.5 47.5C71.635 47.5 75 50.865 75 55C75 59.135 71.635 62.5 67.5 62.5ZM67.5 52.5C66.125 52.5 65 53.625 65 55C65 56.375 66.125 57.5 67.5 57.5C68.875 57.5 70 56.375 70 55C70 53.625 68.875 52.5 67.5 52.5Z" fill="#455A64"/>
<path d="M55 57.5H17.5C16.12 57.5 15 56.38 15 55V47.5H55V57.5Z" fill="#F44336"/>
<path d="M32.5 60C35.2614 60 37.5 57.7614 37.5 55C37.5 52.2386 35.2614 50 32.5 50C29.7386 50 27.5 52.2386 27.5 55C27.5 57.7614 29.7386 60 32.5 60Z" fill="#FAFAFA"/>
<path d="M32.5 62.5C28.365 62.5 25 59.135 25 55C25 50.865 28.365 47.5 32.5 47.5C36.635 47.5 40 50.865 40 55C40 59.135 36.635 62.5 32.5 62.5ZM32.5 52.5C31.12 52.5 30 53.625 30 55C30 56.375 31.12 57.5 32.5 57.5C33.88 57.5 35 56.375 35 55C35 53.625 33.88 52.5 32.5 52.5Z" fill="#455A64"/>
</svg>
