<svg width="17" height="10" viewBox="0 0 17 10" fill="none" xmlns="http://www.w3.org/2000/svg">
<path fill-rule="evenodd" clip-rule="evenodd" d="M8.54671 9.26297H9.48857C9.48857 9.26297 9.77307 9.23174 9.91831 9.07516C10.052 8.93141 10.0477 8.66145 10.0477 8.66145C10.0477 8.66145 10.0293 7.39767 10.6159 7.21156C11.1941 7.02824 11.9366 8.433 12.7235 8.97312C13.3186 9.38191 13.7709 9.29228 13.7709 9.29228L15.8751 9.26297C15.8751 9.26297 16.9759 9.19516 16.4539 8.32968C16.4112 8.25887 16.15 7.68944 14.8894 6.51935C13.57 5.2947 13.7467 5.49279 15.336 3.37442C16.304 2.08432 16.691 1.2967 16.5701 0.959364C16.4548 0.638069 15.7429 0.722992 15.7429 0.722992L13.3736 0.737752C13.3736 0.737752 13.198 0.713794 13.0677 0.791658C12.9405 0.868024 12.8585 1.046 12.8585 1.046C12.8585 1.046 12.4835 2.04432 11.9834 2.89334C10.9284 4.68484 10.5066 4.77939 10.3342 4.66816C9.93307 4.4089 10.0332 3.62662 10.0332 3.07088C10.0332 1.33478 10.2965 0.610903 9.52044 0.423517C9.26289 0.361269 9.07336 0.320198 8.41473 0.313567C7.56935 0.304796 6.85382 0.316133 6.44867 0.514643C6.17914 0.646626 5.97122 0.940754 6.09786 0.957653C6.25444 0.978616 6.60911 1.05327 6.79713 1.30932C7.03992 1.6396 7.03137 2.38145 7.03137 2.38145C7.03137 2.38145 7.17084 4.42515 6.70558 4.67907C6.38621 4.85319 5.94812 4.49767 5.00755 2.87237C4.52561 2.03983 4.16175 1.11958 4.16175 1.11958C4.16175 1.11958 4.09158 0.947599 3.96645 0.855617C3.81457 0.744169 3.60237 0.708661 3.60237 0.708661L1.35095 0.72342C1.35095 0.72342 1.01297 0.732832 0.888902 0.87979C0.778524 1.01049 0.880132 1.28087 0.880132 1.28087C0.880132 1.28087 2.64276 5.40465 4.63855 7.4828C6.46857 9.38811 8.54671 9.26297 8.54671 9.26297Z" fill="white"/>
</svg>
