<svg width="92" height="92" viewBox="0 0 92 92" fill="none" xmlns="http://www.w3.org/2000/svg">
<g clip-path="url(#clip0)">
<path d="M91.6165 27.6016L80.1166 12.2684C79.7554 11.7854 79.1863 11.501 78.5837 11.501H13.4172C12.8145 11.501 12.2455 11.7854 11.8843 12.2684L0.384343 27.6016C-0.162264 28.3279 -0.121116 29.3405 0.481733 30.0199L44.5648 79.8511C44.928 80.263 45.4521 80.4987 46.0005 80.4987C46.5489 80.4987 47.0731 80.2628 47.4362 79.8511L91.5193 30.0199C92.1218 29.3405 92.163 28.3279 91.6165 27.6016ZM11.8485 23.8171C9.40947 27.2947 8.30997 30.2297 7.95635 32.6853L4.38794 28.6517L14.3755 15.3342H23.5945C18.9523 17.16 14.6326 19.8469 11.8485 23.8171ZM46.0004 75.6903L36.7973 65.2872C37.0311 65.2886 37.239 65.2927 37.4859 65.2927C42.6424 65.2927 50.5434 64.9154 57.181 63.0519L46.0004 75.6903ZM65.2344 53.1641C63.9264 57.9735 54.8887 60.2881 45.5829 61.1035C44.6398 57.5763 41.7506 49.8343 34.5004 49.8343C30.0293 49.8343 27.4662 51.818 26.1726 53.2771L19.3339 45.5468C21.0314 45.8467 22.8905 46.0008 24.8965 46.0008C24.904 46.0008 24.9114 46.0008 24.919 46.0008C54.4101 45.9559 62.9601 49.0649 64.9386 51.6534C65.3091 52.1364 65.3952 52.5743 65.2344 53.1641ZM79.1574 38.2098C74.9813 30.6867 63.0731 30.6676 46.0004 30.6676C34.5004 30.6676 34.5004 26.7837 34.5004 24.9177C34.5004 20.5658 36.4976 15.3718 46.0079 15.3344H46.2923C61.59 15.3943 65.1239 25.1162 65.2642 25.5205C65.5244 26.3048 66.2581 26.8345 67.0835 26.8345H78.5835C79.6429 26.8345 80.5002 25.9773 80.5002 24.9178V19.168L87.6128 28.6519L79.1574 38.2098Z" fill="url(#paint0_linear)"/>
</g>
<defs>
<linearGradient id="paint0_linear" x1="46.0004" y1="11.501" x2="46.0004" y2="80.4987" gradientUnits="userSpaceOnUse">
<stop stop-color="#F7CD47"/>
<stop offset="1" stop-color="#F37500"/>
</linearGradient>
<clipPath id="clip0">
<rect width="92" height="92" fill="white"/>
</clipPath>
</defs>
</svg>
