<svg width="92" height="92" viewBox="0 0 92 92" fill="none" xmlns="http://www.w3.org/2000/svg">
<path d="M90.2031 71.7836H62.5312V61.1468C62.5312 56.9896 63.9529 52.9056 66.5345 49.6472L72.4838 42.1377C73.184 41.2536 74.2693 40.8202 75.3857 40.9794C76.5025 41.1384 77.4236 41.8568 77.8496 42.9012C78.2424 43.8641 78.1335 44.9564 77.558 45.8229L71.1866 55.4166C70.6375 56.2433 70.8626 57.3585 71.6894 57.9074C72.5161 58.4564 73.6313 58.2316 74.1802 57.4047L80.5516 47.811C81.7858 45.9525 82.0196 43.6095 81.1771 41.5438C80.2632 39.3033 78.2875 37.7623 75.8919 37.4214C73.4961 37.0806 71.169 38.0094 69.6666 39.906L63.7174 47.4155C60.635 51.3062 58.9375 56.183 58.9375 61.1468V71.7836C57.9451 71.7836 57.1406 72.5883 57.1406 73.5805V86.6078C57.1406 87.6001 57.9451 88.4047 58.9375 88.4047C59.9299 88.4047 60.7344 87.6001 60.7344 86.6078V75.3774H88.4062V86.6078C88.4062 87.6001 89.2107 88.4047 90.2031 88.4047C91.1955 88.4047 92 87.6001 92 86.6078V73.5805C92 72.5881 91.1955 71.7836 90.2031 71.7836Z" fill="url(#paint0_linear)"/>
<path d="M89.6623 64.5531C89.328 64.2189 88.8645 64.0266 88.3919 64.0266C87.9175 64.0266 87.4557 64.2187 87.1215 64.5531C86.7855 64.8873 86.595 65.3509 86.595 65.8235C86.595 66.2979 86.7855 66.7597 87.1215 67.0937C87.4557 67.4297 87.9175 67.6204 88.3919 67.6204C88.8645 67.6204 89.328 67.4297 89.6623 67.0937C89.9965 66.7597 90.1888 66.2977 90.1888 65.8235C90.1888 65.3509 89.9965 64.8873 89.6623 64.5531Z" fill="url(#paint1_linear)"/>
<path d="M86.2105 28.0549L78.0165 8.32212C77.1867 6.32381 75.5415 4.76197 73.5028 4.03711C71.4639 3.31243 69.2022 3.48493 67.2969 4.51148C63.7831 6.40431 62.314 10.6002 63.8798 14.2714L72.5571 34.6181C72.9465 35.5311 74.0018 35.9557 74.9148 35.566C75.8276 35.1766 76.252 34.1211 75.8626 33.2083L67.1853 12.8617C66.3534 10.9109 67.1339 8.68131 69.0013 7.67542C70.0285 7.12198 71.1996 7.0325 72.2989 7.42332C73.3982 7.81414 74.2499 8.62273 74.6975 9.70032L82.8915 29.4331C85.3485 35.3503 86.5945 41.5993 86.5945 48.0068V58.3969C86.5945 59.3891 87.3989 60.1938 88.3913 60.1938C89.3838 60.1938 90.1882 59.3891 90.1882 58.3969V48.0068C90.1882 41.1241 88.8499 34.4111 86.2105 28.0549Z" fill="url(#paint2_linear)"/>
<path d="M69.0817 79.8397L69.0674 79.8241C68.3973 79.0924 67.2604 79.0421 66.5288 79.7125C65.7969 80.3825 65.7468 81.5194 66.417 82.2513L66.4314 82.2669C66.7857 82.6538 67.2705 82.8502 67.7571 82.8502C68.1905 82.8502 68.6253 82.6944 68.97 82.3785C69.7019 81.7084 69.752 80.5716 69.0817 79.8397Z" fill="url(#paint3_linear)"/>
<path d="M33.0625 71.7838V61.147C33.0625 56.1832 31.365 51.3064 28.2825 47.4157L22.3332 39.9062C20.8306 38.0097 18.5037 37.0809 16.1079 37.4216C13.7123 37.7625 11.7366 39.3035 10.8228 41.544C9.9802 43.6097 10.214 45.9526 11.4483 47.8112L17.8196 57.4049C18.3686 58.2318 19.4841 58.4567 20.3104 57.9076C21.1372 57.3585 21.3623 56.2434 20.8132 55.4168L14.4418 45.8231C13.8663 44.9566 13.7574 43.8645 14.1502 42.9014C14.5763 41.8568 15.4973 41.1385 16.6141 40.9796C17.7314 40.8211 18.8156 41.2538 19.516 42.1379L25.4653 49.6474C28.0471 52.9057 29.4688 56.9898 29.4688 61.147V71.7838H5.40554V48.007C5.40554 41.5995 6.65149 35.3505 9.10854 29.4333L17.3025 9.70033C17.7499 8.62274 18.6016 7.81415 19.7011 7.42333C20.8003 7.03251 21.9716 7.12217 22.9987 7.67543C24.8661 8.68132 25.6466 10.9109 24.8147 12.8618L16.1374 33.2083C15.748 34.1211 16.1724 35.1768 17.0852 35.566C17.9979 35.9554 19.0537 35.531 19.4429 34.6181L28.1202 14.2716C29.686 10.6004 28.2169 6.4045 24.7031 4.51167C22.7979 3.4853 20.5361 3.31262 18.4972 4.0373C16.4585 4.76216 14.8133 6.324 13.9835 8.32231L5.78971 28.0549C3.15028 34.4113 1.81197 41.1241 1.81197 48.0068V71.7836H1.79688C0.804461 71.7836 0 72.5883 0 73.5805V86.6078C0 87.6001 0.804461 88.4047 1.79688 88.4047C2.78929 88.4047 3.59375 87.6001 3.59375 86.6078V75.3774H31.2656V86.6078C31.2656 87.6001 32.0701 88.4047 33.0625 88.4047C34.0549 88.4047 34.8594 87.6001 34.8594 86.6078V73.5805C34.8594 72.5883 34.0549 71.7838 33.0625 71.7838Z" fill="url(#paint4_linear)"/>
<path d="M25.4713 79.7124C24.7394 79.042 23.6027 79.0925 22.9326 79.824L22.9182 79.8396C22.248 80.5715 22.298 81.7082 23.03 82.3784C23.3748 82.6943 23.8095 82.8501 24.2429 82.8501C24.7293 82.8501 25.2143 82.6537 25.5686 82.2668L25.583 82.2512C26.2533 81.5193 26.2033 80.3826 25.4713 79.7124Z" fill="url(#paint5_linear)"/>
<path d="M53.1268 19.9478C50.5385 19.9478 48.0238 20.8931 46 22.5883C43.9762 20.8931 41.4615 19.9478 38.8732 19.9478C32.4729 19.9478 27.266 25.5689 27.266 32.4781C27.266 36.4431 30.3093 41.2688 36.3113 46.8211C40.595 50.7841 44.8123 53.6636 44.9896 53.7843C45.2945 53.9915 45.6473 54.0952 46 54.0952C46.3527 54.0952 46.7055 53.9915 47.0104 53.7843C47.1877 53.6636 51.4052 50.7841 55.6888 46.8211C61.6909 41.2688 64.734 36.4431 64.734 32.4781C64.734 25.5687 59.5271 19.9478 53.1268 19.9478ZM53.2788 44.1549C50.4005 46.8209 47.4867 49.0194 45.9996 50.0966C44.5196 49.0246 41.6253 46.8418 38.7516 44.1831C33.6625 39.4751 30.8597 35.3182 30.8597 32.4781C30.8597 27.5503 34.4545 23.5415 38.8732 23.5415C41.0665 23.5415 43.1148 24.5133 44.641 26.2778C44.9823 26.6724 45.4784 26.8991 46 26.8991C46.5216 26.8991 47.0177 26.6724 47.359 26.2778C48.8851 24.5133 50.9335 23.5415 53.1268 23.5415C57.5455 23.5415 61.1403 27.5505 61.1403 32.4781C61.1403 35.3119 58.3485 39.4589 53.2788 44.1549Z" fill="url(#paint6_linear)"/>
<defs>
<linearGradient id="paint0_linear" x1="74.5703" y1="37.3521" x2="74.5703" y2="88.4047" gradientUnits="userSpaceOnUse">
<stop stop-color="#F7CD47"/>
<stop offset="1" stop-color="#F37500"/>
</linearGradient>
<linearGradient id="paint1_linear" x1="88.3919" y1="64.0266" x2="88.3919" y2="67.6204" gradientUnits="userSpaceOnUse">
<stop stop-color="#F7CD47"/>
<stop offset="1" stop-color="#F37500"/>
</linearGradient>
<linearGradient id="paint2_linear" x1="76.722" y1="3.59521" x2="76.722" y2="60.1938" gradientUnits="userSpaceOnUse">
<stop stop-color="#F7CD47"/>
<stop offset="1" stop-color="#F37500"/>
</linearGradient>
<linearGradient id="paint3_linear" x1="67.7494" y1="79.2407" x2="67.7494" y2="82.8502" gradientUnits="userSpaceOnUse">
<stop stop-color="#F7CD47"/>
<stop offset="1" stop-color="#F37500"/>
</linearGradient>
<linearGradient id="paint4_linear" x1="17.4297" y1="3.59546" x2="17.4297" y2="88.4047" gradientUnits="userSpaceOnUse">
<stop stop-color="#F7CD47"/>
<stop offset="1" stop-color="#F37500"/>
</linearGradient>
<linearGradient id="paint5_linear" x1="24.2506" y1="79.2407" x2="24.2506" y2="82.8501" gradientUnits="userSpaceOnUse">
<stop stop-color="#F7CD47"/>
<stop offset="1" stop-color="#F37500"/>
</linearGradient>
<linearGradient id="paint6_linear" x1="46" y1="19.9478" x2="46" y2="54.0952" gradientUnits="userSpaceOnUse">
<stop stop-color="#F7CD47"/>
<stop offset="1" stop-color="#F37500"/>
</linearGradient>
</defs>
</svg>
