<svg width="92" height="92" viewBox="0 0 92 92" fill="none" xmlns="http://www.w3.org/2000/svg">
<g clip-path="url(#clip0)">
<path d="M27.7933 32.5917C27.4861 31.3632 26.2578 30.4419 24.8758 30.4419H13.8199C12.1307 30.4419 10.7487 31.8239 10.7487 33.513V41.1908C10.7487 42.88 12.1307 44.262 13.8199 44.262H27.1792C28.1005 44.262 29.0218 43.8013 29.4825 43.0335C30.0966 42.1122 30.2503 41.1908 29.9431 40.2695L27.7933 32.5917ZM13.8199 41.1908V33.513H24.8758L27.1792 41.1908H13.8199Z" fill="url(#paint0_linear)"/>
<path d="M21.4977 79.5795C22.419 79.5795 23.0332 78.9654 23.0332 78.044C23.0332 77.1227 22.419 76.5085 21.4977 76.5085C20.5764 76.5085 19.9622 77.1227 19.9622 78.044C19.9622 78.9654 20.5764 79.5795 21.4977 79.5795Z" fill="url(#paint1_linear)"/>
<path d="M29.1754 79.5795C30.0967 79.5795 30.7109 78.9654 30.7109 78.044C30.7109 77.1227 30.0967 76.5085 29.1754 76.5085C28.254 76.5085 27.6399 77.1227 27.6399 78.044C27.6399 78.9654 28.254 79.5795 29.1754 79.5795Z" fill="url(#paint2_linear)"/>
<path d="M36.8531 79.5795C37.7744 79.5795 38.3886 78.9654 38.3886 78.044C38.3886 77.1227 37.7744 76.5085 36.8531 76.5085C35.9318 76.5085 35.3176 77.1227 35.3176 78.044C35.3176 78.9654 35.9318 79.5795 36.8531 79.5795Z" fill="url(#paint3_linear)"/>
<path d="M91.9793 47.3331C91.9793 38.4352 80.9309 35.9559 76.7774 35.3661V18.9934L78.4666 17.2364C79.695 15.8544 80.3092 14.1653 80.1557 12.3226C80.0022 10.48 79.0809 8.79079 77.6989 7.71597C75.0884 5.56614 71.2496 5.87331 68.9463 8.33013L39.1788 39.8316L36.0855 25.989C35.4713 23.225 33.0143 21.2289 30.0968 21.2289H26.1044V18.1577C26.1044 14.7796 23.3404 12.0156 19.9622 12.0156C16.5841 12.0156 13.8199 14.7794 13.8199 18.1577V21.2289H9.21328C5.83514 21.2289 3.07115 23.9929 3.07115 27.371V50.4042V53.4754V71.8654C1.19647 73.2537 0 75.4856 0 78.0441C0 82.3435 3.37814 85.7219 7.67779 85.7219H50.673C54.9725 85.7219 58.3508 82.3437 58.3508 78.0441C58.3508 73.7444 54.9727 70.3663 50.673 70.3663H50.131L55.2797 55.7785C55.8938 54.7037 55.7403 53.3217 55.1262 52.2467C54.3583 51.0182 53.2835 50.404 51.9015 50.404H46.5798L73.7062 22.1878V35.1825C69.7033 35.7031 58.4793 38.0475 58.3508 47.1796C58.1973 48.4081 58.658 52.861 68.0248 62.228C68.3319 62.5352 68.6389 62.6887 69.0996 62.6887C69.2531 62.6887 69.4068 62.6887 69.4068 62.5352C70.0209 62.3817 70.3281 62.0745 70.4816 61.4603L73.5527 47.7939L75.1535 42.1915L76.7774 47.7939L79.8485 61.6138C80.002 62.0745 80.3092 62.5352 80.9234 62.6887C81.0769 62.6887 81.2305 62.6887 81.384 62.6887C81.8447 62.6887 82.1519 62.5352 82.3054 62.3815C91.6721 53.0145 92.1328 48.4079 91.9793 47.3331ZM16.8911 18.1577C16.8911 16.4686 18.2731 15.0866 19.9622 15.0866C21.6514 15.0866 23.0332 16.4686 23.0332 18.1577V21.2289H16.8911V18.1577ZM6.14213 27.371C6.14213 25.6819 7.52412 24.2999 9.21328 24.2999H13.8199H26.1044H29.9432C31.4786 24.2999 32.7071 25.3747 33.0143 26.7567L38.3888 50.404H6.14231V27.371H6.14213ZM3.07115 78.0441C3.07115 75.4336 5.0673 73.4374 7.67779 73.4374C10.2883 73.4374 12.2844 75.4336 12.2844 78.0441C12.2844 80.6546 10.2883 82.6507 7.67779 82.6507C5.0673 82.6507 3.07115 80.6544 3.07115 78.0441ZM13.8564 73.4374H44.4944C43.5497 74.7132 42.9954 76.3029 42.9954 78.0441C42.9954 79.7852 43.5497 81.3749 44.4944 82.6507H13.8564C14.8012 81.3749 15.3554 79.7852 15.3554 78.0441C15.3554 76.3029 14.8012 74.7131 13.8564 73.4374ZM55.2797 78.0441C55.2797 80.6546 53.2835 82.6507 50.673 82.6507C48.0625 82.6507 46.0664 80.6546 46.0664 78.0441C46.0664 75.4336 48.0625 73.4374 50.673 73.4374C53.2835 73.4374 55.2797 75.4336 55.2797 78.0441ZM52.5157 53.9359C52.5157 53.9359 52.6692 54.243 52.5157 54.55L46.9877 70.0591C46.8342 70.2126 46.6806 70.3663 46.3736 70.3663H7.67779H6.14231V65.7596H39.9243C40.8456 65.7596 41.4598 65.1455 41.4598 64.2241C41.4598 63.3028 40.8456 62.6887 39.9243 62.6887H6.14213V59.6175H30.7108C31.6321 59.6175 32.2463 59.0034 32.2463 58.082C32.2463 57.1607 31.6321 56.5465 30.7108 56.5465H6.14213V53.6291H51.9014C52.2085 53.6289 52.5157 53.7824 52.5157 53.9359ZM41.6133 50.4042L40.5132 45.8044L39.9554 43.308L71.2494 10.6334C72.4779 9.40495 74.4741 9.25145 75.8561 10.3263C76.6239 10.7869 77.0846 11.7083 77.0846 12.6296C77.0846 13.5509 76.7774 14.4723 76.1632 15.0864L74.5709 16.7511C74.2133 16.9015 73.9481 17.1776 73.8113 17.5452L42.3811 50.4042H41.6133ZM70.6351 47.0259L68.1783 58.0818C61.4218 50.8647 61.4218 47.6401 61.4218 47.6401C61.4218 47.4866 61.4218 47.4866 61.4218 47.3329C61.4218 41.1908 69.2531 39.0409 73.0919 38.4268L70.6351 47.0259ZM82.3054 57.9283L79.8485 46.8724L77.3917 38.427C81.2305 39.0411 89.0618 41.1909 89.0618 47.3331C89.0616 47.4866 89.2153 50.5577 82.3054 57.9283Z" fill="url(#paint4_linear)"/>
</g>
<defs>
<linearGradient id="paint0_linear" x1="20.4227" y1="30.4419" x2="20.4227" y2="44.262" gradientUnits="userSpaceOnUse">
<stop stop-color="#F7CD47"/>
<stop offset="1" stop-color="#F37500"/>
</linearGradient>
<linearGradient id="paint1_linear" x1="21.4977" y1="76.5085" x2="21.4977" y2="79.5795" gradientUnits="userSpaceOnUse">
<stop stop-color="#F7CD47"/>
<stop offset="1" stop-color="#F37500"/>
</linearGradient>
<linearGradient id="paint2_linear" x1="29.1754" y1="76.5085" x2="29.1754" y2="79.5795" gradientUnits="userSpaceOnUse">
<stop stop-color="#F7CD47"/>
<stop offset="1" stop-color="#F37500"/>
</linearGradient>
<linearGradient id="paint3_linear" x1="36.8531" y1="76.5085" x2="36.8531" y2="79.5795" gradientUnits="userSpaceOnUse">
<stop stop-color="#F7CD47"/>
<stop offset="1" stop-color="#F37500"/>
</linearGradient>
<linearGradient id="paint4_linear" x1="46.0001" y1="6.27832" x2="46.0001" y2="85.7219" gradientUnits="userSpaceOnUse">
<stop stop-color="#F7CD47"/>
<stop offset="1" stop-color="#F37500"/>
</linearGradient>
<clipPath id="clip0">
<rect width="92" height="92" fill="white"/>
</clipPath>
</defs>
</svg>
