<svg width="92" height="92" viewBox="0 0 92 92" fill="none" xmlns="http://www.w3.org/2000/svg">
<g clip-path="url(#clip0)">
<path d="M88.1041 84.1895H81.2698V18.5503C81.2698 16.4099 79.5049 14.645 77.3645 14.645C75.2241 14.645 73.4592 16.4099 73.4592 18.5503V84.1895H60.3727V34.7724C60.3727 32.632 58.6078 30.8671 56.4674 30.8671C54.327 30.8671 52.5621 32.632 52.5621 34.7724V84.1895H39.2878V53.9046C39.2878 51.7642 37.5229 49.9993 35.3825 49.9993C33.2421 49.9993 31.4772 51.7642 31.4772 53.9046V84.1895H18.3906V60.5511C18.3906 58.4107 16.6257 56.6458 14.4853 56.6458C12.3449 56.6458 10.58 58.4107 10.58 60.5511V84.1895H3.91471C1.7743 84.1895 0.00939941 85.9544 0.00939941 88.0948C0.00939941 90.2352 1.7743 92.0001 3.91471 92.0001H87.8976C90.038 92.0001 91.9906 90.2352 91.9906 88.0948C92.0094 85.9356 90.2445 84.1895 88.1041 84.1895Z" fill="url(#paint0_linear)"/>
<path d="M9.77268 40.2359C10.918 40.0482 37.2976 33.9086 57.6315 13.5184V21.0849C57.6315 23.2253 59.3964 24.9902 61.5368 24.9902C63.6772 24.9902 65.4421 23.2253 65.4421 20.8971V3.90531C65.4421 1.7649 63.6772 0 61.5368 0H44.3572C42.2168 0 40.4519 1.7649 40.4519 3.90531C40.4519 6.04571 42.2168 7.81061 44.3572 7.81061H52.4119C33.749 26.9992 8.21432 33.0073 8.02656 33.0073C5.86738 33.4016 4.7033 35.3543 5.07881 37.4947C5.67962 39.9918 8.32697 40.7241 9.77268 40.2359Z" fill="url(#paint1_linear)"/>
</g>
<defs>
<linearGradient id="paint0_linear" x1="46.0001" y1="14.645" x2="46.0001" y2="92.0001" gradientUnits="userSpaceOnUse">
<stop stop-color="#F7CD47"/>
<stop offset="1" stop-color="#F37500"/>
</linearGradient>
<linearGradient id="paint1_linear" x1="35.2256" y1="0" x2="35.2256" y2="40.3783" gradientUnits="userSpaceOnUse">
<stop stop-color="#F7CD47"/>
<stop offset="1" stop-color="#F37500"/>
</linearGradient>
<clipPath id="clip0">
<rect width="92" height="92" fill="white"/>
</clipPath>
</defs>
</svg>
