<svg width="92" height="92" viewBox="0 0 92 92" fill="none" xmlns="http://www.w3.org/2000/svg">
<path d="M70.6726 10.7827C69.9286 10.7827 69.325 11.3856 69.325 12.1303C69.325 12.8743 69.9286 13.478 70.6726 13.478C74.0095 13.478 76.7238 16.1922 76.7238 19.5291V33.4092C76.7238 36.7454 74.0095 39.4597 70.6726 39.4597H44.1329C40.7961 39.4597 38.0818 36.7454 38.0818 33.4092V19.5291C38.0818 16.1922 40.7961 13.478 44.1329 13.478H64.8061C65.5501 13.478 66.1538 12.8743 66.1538 12.1303C66.1538 11.3856 65.5501 10.7827 64.8061 10.7827H56.2815V6.63931C56.2815 2.97818 53.3033 0 49.6422 0H18.6629C15.4068 0 12.7578 2.64899 12.7578 5.90512V13.7721C12.7578 14.7189 13.2856 15.5689 14.1349 15.988C14.4852 16.1613 15.5984 16.5902 16.7327 15.7346L18.7226 14.2122C19.0378 13.97 19.4666 13.9637 19.7888 14.196L21.872 15.6946V21.2066C20.2184 21.9106 18.7114 22.9572 17.4346 24.314C14.9127 26.9931 13.6464 30.4907 13.8682 34.1631L16.6948 80.8853C17.0724 87.1176 22.2588 92 28.5029 92H49.6513C55.8954 92 61.0818 87.1176 61.4587 80.8853L63.8024 42.155H70.6726C75.4954 42.155 79.4191 38.232 79.4191 33.4092V19.5291C79.4191 14.7063 75.4954 10.7827 70.6726 10.7827ZM17.0844 12.0714L15.4531 13.32V5.90512C15.4531 4.13492 16.8934 2.69531 18.6629 2.69531C20.4324 2.69531 21.872 4.13492 21.872 5.90512V12.3739C21.872 12.3746 19.5326 10.1608 17.0844 12.0714ZM23.617 2.69531H49.6422C51.8167 2.69531 53.5862 4.46481 53.5862 6.63931V10.7827H44.1322C39.3102 10.7827 35.3865 15.0032 35.3865 20.1601H27.05C26.2056 20.1601 25.3766 20.2415 24.5674 20.3931V5.90512C24.5674 4.72241 24.2178 3.61972 23.617 2.69531ZM58.7683 80.7218C58.4778 85.5348 54.4727 89.3047 49.6513 89.3047H28.5029C23.6815 89.3047 19.6765 85.5348 19.3852 80.7218L16.5586 34.0002C16.3817 31.0775 17.3897 28.2938 19.3971 26.1614C21.4039 24.0297 24.1216 22.8554 27.05 22.8554H35.3865V33.4092C35.3865 38.232 39.3094 42.155 44.1322 42.155H53.2036C53.2036 42.155 53.4493 47.4593 48.5591 47.4593H29.5951C27.1707 47.4593 25.1562 45.5634 25.0103 43.1432L24.4284 33.5244C24.3687 32.5389 24.8474 31.8742 25.1373 31.5653C25.4279 31.2565 26.0631 30.7392 27.05 30.7392H30.975C31.7198 30.7392 32.3227 30.1356 32.3227 29.3915C32.3227 28.6468 31.7198 28.0439 30.975 28.0439H27.05C25.0496 28.0439 23.7637 29.0925 23.1748 29.7179C22.5866 30.3433 21.6172 31.6903 21.738 33.6872L22.3199 43.3061C22.5522 47.1462 25.7473 50.1546 29.5951 50.1546H48.5591C56.4261 50.1546 55.9039 42.155 55.9039 42.155H61.1022L58.7683 80.7218Z" fill="url(#paint0_linear)"/>
<path d="M45.23 16.6077C43.2485 16.6077 41.637 18.2192 41.637 20.2007V23.327C41.637 25.3085 43.2485 26.92 45.23 26.92H48.3563C50.3378 26.92 51.9493 25.3085 51.9493 23.327V20.2007C51.9493 18.2192 50.3378 16.6077 48.3563 16.6077H45.23ZM49.254 20.2007V23.327C49.254 23.8218 48.8511 24.2247 48.3563 24.2247H45.23C44.7352 24.2247 44.3323 23.8218 44.3323 23.327V20.2007C44.3323 19.7059 44.7352 19.303 45.23 19.303H48.3563C48.8511 19.303 49.254 19.7059 49.254 20.2007Z" fill="url(#paint1_linear)"/>
<path d="M63.2233 28.0432C60.4585 28.0432 58.2089 30.2928 58.2089 33.0576C58.2089 35.8224 60.4585 38.072 63.2233 38.072C64.2221 38.072 65.1536 37.7765 65.9362 37.2711C66.7392 37.7913 67.6755 38.072 68.6554 38.072C71.4202 38.072 73.6691 35.8224 73.6691 33.0576C73.6691 30.2928 71.4202 28.0432 68.6554 28.0432C67.6846 28.0432 66.7406 28.3275 65.9376 28.8448C65.1543 28.3387 64.2228 28.0432 63.2233 28.0432ZM63.2233 35.3767C61.9445 35.3767 60.9042 34.3365 60.9042 33.0576C60.9042 31.7794 61.9445 30.7392 63.2233 30.7392C64.5022 30.7392 65.5424 31.7794 65.5424 33.0576C65.5424 34.3365 64.5022 35.3767 63.2233 35.3767ZM70.9745 33.0576C70.9745 34.8419 69.153 36.0983 67.7576 35.1963C68.0651 34.5471 68.2377 33.8227 68.2377 33.0576C68.2377 32.2939 68.0651 31.5703 67.759 30.9217C69.3145 30.0429 70.9745 31.2734 70.9745 33.0576Z" fill="url(#paint2_linear)"/>
<path d="M25.9164 63.4571H28.0495C30.3595 63.4571 32.2385 61.5781 32.2385 59.2688V57.135C32.2385 54.8258 30.3595 52.9468 28.0495 52.9468H25.9164C23.6064 52.9468 21.7274 54.8258 21.7274 57.135V59.2688C21.7274 61.5781 23.6064 63.4571 25.9164 63.4571ZM24.4228 57.135C24.4228 56.3117 25.0931 55.6421 25.9164 55.6421H28.0495C28.8728 55.6421 29.5432 56.3117 29.5432 57.135V59.2688C29.5432 60.0922 28.8728 60.7618 28.0495 60.7618H25.9164C25.0931 60.7618 24.4228 60.0922 24.4228 59.2688V57.135Z" fill="url(#paint3_linear)"/>
<path d="M38.0102 63.4571H40.144C42.4533 63.4571 44.3323 61.5781 44.3323 59.2688V57.135C44.3323 54.8258 42.4533 52.9468 40.144 52.9468H38.0102C35.701 52.9468 33.822 54.8258 33.822 57.135V59.2688C33.822 61.5781 35.701 63.4571 38.0102 63.4571ZM36.5173 57.135C36.5173 56.3117 37.1869 55.6421 38.0102 55.6421H40.144C40.9673 55.6421 41.637 56.3117 41.637 57.135V59.2688C41.637 60.0922 40.9673 60.7618 40.144 60.7618H38.0102C37.1869 60.7618 36.5173 60.0922 36.5173 59.2688V57.135Z" fill="url(#paint4_linear)"/>
<path d="M52.2378 52.9468H50.1047C47.7948 52.9468 45.9158 54.8258 45.9158 57.135V59.2688C45.9158 61.5781 47.7948 63.4571 50.1047 63.4571H52.2378C54.5478 63.4571 56.4261 61.5781 56.4261 59.2688V57.135C56.4261 54.8258 54.5471 52.9468 52.2378 52.9468ZM53.7308 59.2688C53.7308 60.0922 53.0612 60.7618 52.2378 60.7618H50.1047C49.2814 60.7618 48.6111 60.0922 48.6111 59.2688V57.135C48.6111 56.3117 49.2814 55.6421 50.1047 55.6421H52.2378C53.0612 55.6421 53.7308 56.3117 53.7308 57.135V59.2688Z" fill="url(#paint5_linear)"/>
<path d="M28.0495 74.9934C30.3588 74.9934 32.2378 73.1144 32.2378 70.8052V68.6714C32.2378 66.3614 30.3595 64.4824 28.0495 64.4824H25.9157C23.6064 64.4824 21.7274 66.3614 21.7274 68.6714V70.8052C21.7274 73.1144 23.6064 74.9934 25.9157 74.9934H28.0495ZM24.4228 70.8052V68.6714C24.4228 67.8481 25.0931 67.1784 25.9164 67.1784H28.0495C28.8728 67.1784 29.5432 67.8481 29.5432 68.6714V70.8052C29.5432 71.6285 28.8728 72.2981 28.0495 72.2981H25.9164C25.0931 72.2981 24.4228 71.6285 24.4228 70.8052Z" fill="url(#paint6_linear)"/>
<path d="M38.0102 74.9934H40.144C42.4533 74.9934 44.3323 73.1144 44.3323 70.8052V68.6714C44.3323 66.3614 42.4533 64.4824 40.144 64.4824H38.0102C35.701 64.4824 33.822 66.3614 33.822 68.6714V70.8052C33.822 73.1144 35.701 74.9934 38.0102 74.9934ZM36.5173 68.6714C36.5173 67.8481 37.1869 67.1784 38.0102 67.1784H40.144C40.9673 67.1784 41.637 67.8481 41.637 68.6714V70.8052C41.637 71.6285 40.9673 72.2981 40.144 72.2981H38.0102C37.1869 72.2981 36.5173 71.6285 36.5173 70.8052V68.6714Z" fill="url(#paint7_linear)"/>
<path d="M52.2378 64.4832H50.1047C47.7948 64.4832 45.9158 66.3622 45.9158 68.6714V70.8052C45.9158 73.1145 47.7948 74.9935 50.1047 74.9935H52.2378C54.5478 74.9935 56.4261 73.1145 56.4261 70.8052V68.6714C56.4261 66.3622 54.5471 64.4832 52.2378 64.4832ZM53.7308 70.8052C53.7308 71.6285 53.0612 72.2982 52.2378 72.2982H50.1047C49.2814 72.2982 48.6111 71.6285 48.6111 70.8052V68.6714C48.6111 67.8481 49.2814 67.1785 50.1047 67.1785H52.2378C53.0612 67.1785 53.7308 67.8481 53.7308 68.6714V70.8052Z" fill="url(#paint8_linear)"/>
<path d="M35.1991 76.1685H28.3268C26.4007 76.1685 24.8334 77.7358 24.8334 79.6625V81.9332C24.8334 83.8592 26.4007 85.4266 28.3268 85.4266H35.1991C37.1258 85.4266 38.6932 83.8592 38.6932 81.9332V79.6625C38.6932 77.7358 37.1258 76.1685 35.1991 76.1685ZM35.9979 81.9332C35.9979 82.3733 35.6399 82.7313 35.1991 82.7313H28.3268C27.8867 82.7313 27.5287 82.3733 27.5287 81.9332V79.6625C27.5287 79.2217 27.8867 78.8638 28.3268 78.8638H35.1991C35.6399 78.8638 35.9979 79.2217 35.9979 79.6625V81.9332Z" fill="url(#paint9_linear)"/>
<path d="M49.8268 76.1685H42.9551C41.0284 76.1685 39.4611 77.7358 39.4611 79.6625V81.9332C39.4611 83.8592 41.0284 85.4266 42.9551 85.4266H44.1849C44.9289 85.4266 45.5325 84.8236 45.5325 84.0789C45.5325 83.3349 44.9289 82.7313 44.1849 82.7313H42.9551C42.5143 82.7313 42.1564 82.3733 42.1564 81.9332V79.6625C42.1564 79.2217 42.5143 78.8638 42.9551 78.8638H49.8268C50.2669 78.8638 50.6255 79.2217 50.6255 79.6625V81.9332C50.6255 82.3733 50.2669 82.7313 49.8268 82.7313C49.0828 82.7313 48.4791 83.3349 48.4791 84.0789C48.4791 84.8236 49.0828 85.4266 49.8268 85.4266C51.7535 85.4266 53.3209 83.8592 53.3209 81.9332V79.6625C53.3209 77.7358 51.7535 76.1685 49.8268 76.1685Z" fill="url(#paint10_linear)"/>
<defs>
<linearGradient id="paint0_linear" x1="46.0884" y1="0" x2="46.0884" y2="92" gradientUnits="userSpaceOnUse">
<stop stop-color="#F7CD47"/>
<stop offset="1" stop-color="#F37500"/>
</linearGradient>
<linearGradient id="paint1_linear" x1="46.7932" y1="16.6077" x2="46.7932" y2="26.92" gradientUnits="userSpaceOnUse">
<stop stop-color="#F7CD47"/>
<stop offset="1" stop-color="#F37500"/>
</linearGradient>
<linearGradient id="paint2_linear" x1="65.939" y1="28.0432" x2="65.939" y2="38.072" gradientUnits="userSpaceOnUse">
<stop stop-color="#F7CD47"/>
<stop offset="1" stop-color="#F37500"/>
</linearGradient>
<linearGradient id="paint3_linear" x1="26.983" y1="52.9468" x2="26.983" y2="63.4571" gradientUnits="userSpaceOnUse">
<stop stop-color="#F7CD47"/>
<stop offset="1" stop-color="#F37500"/>
</linearGradient>
<linearGradient id="paint4_linear" x1="39.0771" y1="52.9468" x2="39.0771" y2="63.4571" gradientUnits="userSpaceOnUse">
<stop stop-color="#F7CD47"/>
<stop offset="1" stop-color="#F37500"/>
</linearGradient>
<linearGradient id="paint5_linear" x1="51.1709" y1="52.9468" x2="51.1709" y2="63.4571" gradientUnits="userSpaceOnUse">
<stop stop-color="#F7CD47"/>
<stop offset="1" stop-color="#F37500"/>
</linearGradient>
<linearGradient id="paint6_linear" x1="26.9826" y1="64.4824" x2="26.9826" y2="74.9934" gradientUnits="userSpaceOnUse">
<stop stop-color="#F7CD47"/>
<stop offset="1" stop-color="#F37500"/>
</linearGradient>
<linearGradient id="paint7_linear" x1="39.0771" y1="64.4824" x2="39.0771" y2="74.9934" gradientUnits="userSpaceOnUse">
<stop stop-color="#F7CD47"/>
<stop offset="1" stop-color="#F37500"/>
</linearGradient>
<linearGradient id="paint8_linear" x1="51.1709" y1="64.4832" x2="51.1709" y2="74.9935" gradientUnits="userSpaceOnUse">
<stop stop-color="#F7CD47"/>
<stop offset="1" stop-color="#F37500"/>
</linearGradient>
<linearGradient id="paint9_linear" x1="31.7633" y1="76.1685" x2="31.7633" y2="85.4266" gradientUnits="userSpaceOnUse">
<stop stop-color="#F7CD47"/>
<stop offset="1" stop-color="#F37500"/>
</linearGradient>
<linearGradient id="paint10_linear" x1="46.391" y1="76.1685" x2="46.391" y2="85.4266" gradientUnits="userSpaceOnUse">
<stop stop-color="#F7CD47"/>
<stop offset="1" stop-color="#F37500"/>
</linearGradient>
</defs>
</svg>
