<svg width="92" height="92" viewBox="0 0 92 92" fill="none" xmlns="http://www.w3.org/2000/svg">
<g clip-path="url(#clip0)">
<path d="M63.3325 39.5312C63.3325 37.5464 61.7235 35.9375 59.7387 35.9375H22.7231C20.7383 35.9375 19.1293 37.5464 19.1293 39.5312C19.1293 41.5161 20.7383 43.125 22.7231 43.125H59.7387C61.7235 43.125 63.3325 41.5161 63.3325 39.5312Z" fill="url(#paint0_linear)"/>
<path d="M22.7231 50.3125C20.7383 50.3125 19.1293 51.9214 19.1293 53.9062C19.1293 55.8911 20.7383 57.5 22.7231 57.5H45.204C47.1888 57.5 48.7977 55.8911 48.7977 53.9062C48.7977 51.9214 47.1888 50.3125 45.204 50.3125H22.7231Z" fill="url(#paint1_linear)"/>
<path d="M31.1684 84.8125H19.1493C15.1861 84.8125 11.9618 81.5882 11.9618 77.625V14.375C11.9618 10.4118 15.1861 7.1875 19.1493 7.1875H63.3325C67.2957 7.1875 70.52 10.4118 70.52 14.375V36.4766C70.52 38.4614 72.1289 40.0703 74.1137 40.0703C76.0985 40.0703 77.7075 38.4614 77.7075 36.4766V14.375C77.7075 6.44863 71.2589 0 63.3325 0H19.1493C11.2229 0 4.77429 6.44863 4.77429 14.375V77.625C4.77429 85.5514 11.2229 92 19.1493 92H31.1684C33.1532 92 34.7622 90.3911 34.7622 88.4062C34.7622 86.4214 33.1532 84.8125 31.1684 84.8125Z" fill="url(#paint2_linear)"/>
<path d="M84.0729 52.0325C79.8693 47.8289 73.0296 47.8287 68.8287 52.0297L49.0985 71.7162C48.6795 72.1343 48.3704 72.6493 48.1983 73.2157L43.9014 87.3616C43.5205 88.6158 43.8523 89.9777 44.7677 90.9158C45.4534 91.6186 46.3849 92.0001 47.3403 92.0001C47.6599 92.0001 47.9826 91.9573 48.2994 91.8694L62.8047 87.8514C63.4016 87.6861 63.9457 87.3693 64.3842 86.9316L84.0731 67.2797C88.2767 63.0761 88.2767 56.2365 84.0729 52.0325ZM59.9753 81.1771L52.6779 83.1986L54.8135 76.1676L68.1263 62.8842L73.2097 67.9676L59.9753 81.1771ZM78.9933 62.1953L78.297 62.8901L73.2145 57.8077L73.9085 57.1152C75.3097 55.714 77.5896 55.714 78.9908 57.1152C80.392 58.5164 80.392 60.7962 78.9933 62.1953Z" fill="url(#paint3_linear)"/>
<path d="M59.7387 21.5625H22.7231C20.7383 21.5625 19.1293 23.1714 19.1293 25.1562C19.1293 27.1411 20.7383 28.75 22.7231 28.75H59.7387C61.7235 28.75 63.3325 27.1411 63.3325 25.1562C63.3325 23.1714 61.7235 21.5625 59.7387 21.5625Z" fill="url(#paint4_linear)"/>
</g>
<defs>
<linearGradient id="paint0_linear" x1="41.2309" y1="35.9375" x2="41.2309" y2="43.125" gradientUnits="userSpaceOnUse">
<stop stop-color="#F7CD47"/>
<stop offset="1" stop-color="#F37500"/>
</linearGradient>
<linearGradient id="paint1_linear" x1="33.9635" y1="50.3125" x2="33.9635" y2="57.5" gradientUnits="userSpaceOnUse">
<stop stop-color="#F7CD47"/>
<stop offset="1" stop-color="#F37500"/>
</linearGradient>
<linearGradient id="paint2_linear" x1="41.2409" y1="0" x2="41.2409" y2="92" gradientUnits="userSpaceOnUse">
<stop stop-color="#F7CD47"/>
<stop offset="1" stop-color="#F37500"/>
</linearGradient>
<linearGradient id="paint3_linear" x1="65.486" y1="48.8794" x2="65.486" y2="92.0001" gradientUnits="userSpaceOnUse">
<stop stop-color="#F7CD47"/>
<stop offset="1" stop-color="#F37500"/>
</linearGradient>
<linearGradient id="paint4_linear" x1="41.2309" y1="21.5625" x2="41.2309" y2="28.75" gradientUnits="userSpaceOnUse">
<stop stop-color="#F7CD47"/>
<stop offset="1" stop-color="#F37500"/>
</linearGradient>
<clipPath id="clip0">
<rect width="92" height="92" fill="white"/>
</clipPath>
</defs>
</svg>
